<?xml version="1.0" encoding="iso-8859-1"?>
<!-- Generator: Adobe Illustrator 19.0.0, SVG Export Plug-In . SVG Version: 6.00 Build 0)  -->
<svg version="1.1" id="Layer_1" xmlns="http://www.w3.org/2000/svg" xmlns:xlink="http://www.w3.org/1999/xlink" x="0px" y="0px"
	 viewBox="0 0 512 512" style="enable-background:new 0 0 512 512;" xml:space="preserve">
<rect x="49.843" y="257.859" style="fill:#FFBF9E;" width="102.154" height="158.956"/>
<rect x="204.922" y="190.531" style="fill:#FFC843;" width="102.154" height="226.284"/>
<rect x="360.001" y="107.919" style="fill:#0055B8;" width="102.154" height="308.907"/>
<rect x="49.843" y="384.894" style="opacity:0.1;enable-background:new    ;" width="102.154" height="31.926"/>
<rect x="204.922" y="384.894" style="opacity:0.1;enable-background:new    ;" width="102.154" height="31.926"/>
<rect x="360.001" y="384.894" style="opacity:0.1;enable-background:new    ;" width="102.154" height="31.926"/>
<path style="fill:#E0E0D3;" d="M512,457.301c0,9.919-8.115,18.034-18.034,18.034H18.033C8.115,475.335,0,467.22,0,457.301v-22.45
	c0-9.919,8.115-18.034,18.033-18.034h475.933c9.919,0,18.034,8.116,18.034,18.034V457.301z"/>
<g>
	<path style="fill:#333E48;" d="M44.405,223.377c-2.144,0-4.289-0.818-5.925-2.455c-3.273-3.273-3.273-8.579,0-11.85L152.123,95.43
		c3.273-3.273,8.579-3.273,11.851,0l41.363,41.363l97.674-97.673c3.273-3.273,8.579-3.273,11.85,0c3.272,3.273,3.272,8.579,0,11.85
		L211.262,154.569c-3.273,3.273-8.579,3.273-11.85,0l-41.363-41.363L50.332,220.923C48.695,222.559,46.551,223.377,44.405,223.377z"
		/>
	<path style="fill:#333E48;" d="M308.935,98.227c-4.628,0-8.38-3.752-8.38-8.38V53.424h-36.424c-4.628,0-8.38-3.752-8.38-8.38
		s3.752-8.38,8.38-8.38h44.803c4.628,0,8.38,3.752,8.38,8.38v44.803C317.315,94.476,313.563,98.227,308.935,98.227z"/>
</g>
<g>
</g>
<g>
</g>
<g>
</g>
<g>
</g>
<g>
</g>
<g>
</g>
<g>
</g>
<g>
</g>
<g>
</g>
<g>
</g>
<g>
</g>
<g>
</g>
<g>
</g>
<g>
</g>
<g>
</g>
</svg>
