<?xml version="1.0" encoding="iso-8859-1"?>
<!-- Generator: Adobe Illustrator 19.0.0, SVG Export Plug-In . SVG Version: 6.00 Build 0)  -->
<svg version="1.1" id="Layer_1" xmlns="http://www.w3.org/2000/svg" xmlns:xlink="http://www.w3.org/1999/xlink" x="0px" y="0px"
	 viewBox="0 0 512 512" style="enable-background:new 0 0 512 512;" xml:space="preserve">
<rect x="139.484" y="24.645" style="fill:#E0E0D3;" width="370.293" height="462.714"/>
<path style="fill:#333E48;" d="M454.345,100.392H194.923c-4.865,0-8.809-3.943-8.809-8.809s3.944-8.809,8.809-8.809h259.422
	c4.866,0,8.809,3.943,8.809,8.809C463.154,96.448,459.211,100.392,454.345,100.392z"/>
<g>
	<path style="fill:#5C6670;" d="M454.345,176.465H194.923c-4.865,0-8.809-3.943-8.809-8.809c0-4.866,3.944-8.809,8.809-8.809
		h259.422c4.866,0,8.809,3.943,8.809,8.809C463.154,172.522,459.211,176.465,454.345,176.465z"/>
	<path style="fill:#5C6670;" d="M454.345,214.503h-59.222c-4.866,0-8.809-3.943-8.809-8.809c0-4.866,3.943-8.809,8.809-8.809h59.222
		c4.866,0,8.809,3.943,8.809,8.809C463.154,210.559,459.211,214.503,454.345,214.503z"/>
	<path style="fill:#5C6670;" d="M370.182,214.503H194.923c-4.865,0-8.809-3.943-8.809-8.809c0-4.866,3.944-8.809,8.809-8.809
		h175.259c4.866,0,8.809,3.943,8.809,8.809C378.99,210.559,375.046,214.503,370.182,214.503z"/>
	<path style="fill:#5C6670;" d="M454.345,252.54H309.45c-4.866,0-8.809-3.943-8.809-8.809s3.943-8.809,8.809-8.809h144.896
		c4.866,0,8.809,3.943,8.809,8.809S459.211,252.54,454.345,252.54z"/>
	<path style="fill:#5C6670;" d="M285.59,252.54h-90.668c-4.865,0-8.809-3.943-8.809-8.809s3.944-8.809,8.809-8.809h90.668
		c4.866,0,8.809,3.943,8.809,8.809S290.456,252.54,285.59,252.54z"/>
</g>
<rect x="139.484" y="24.645" style="opacity:0.1;enable-background:new    ;" width="254.594" height="462.714"/>
<g>
	<path style="fill:#5C6670;" d="M454.345,328.612H298.545c-4.866,0-8.809-3.943-8.809-8.809c0-4.866,3.943-8.809,8.809-8.809
		h155.801c4.866,0,8.809,3.943,8.809,8.809C463.154,324.669,459.211,328.612,454.345,328.612z"/>
	<path style="fill:#5C6670;" d="M268.179,328.612h-73.258c-4.865,0-8.809-3.943-8.809-8.809c0-4.866,3.944-8.809,8.809-8.809h73.258
		c4.866,0,8.809,3.943,8.809,8.809C276.988,324.669,273.045,328.612,268.179,328.612z"/>
	<path style="fill:#5C6670;" d="M454.345,366.647h-84.164c-4.866,0-8.809-3.943-8.809-8.809c0-4.866,3.943-8.809,8.809-8.809h84.164
		c4.866,0,8.809,3.943,8.809,8.809C463.154,362.704,459.211,366.647,454.345,366.647z"/>
	<path style="fill:#5C6670;" d="M340.48,366.647H194.923c-4.865,0-8.809-3.943-8.809-8.809c0-4.866,3.944-8.809,8.809-8.809H340.48
		c4.866,0,8.809,3.943,8.809,8.809C349.289,362.704,345.345,366.647,340.48,366.647z"/>
	<path style="fill:#5C6670;" d="M454.345,404.683H194.923c-4.865,0-8.809-3.944-8.809-8.809c0-4.866,3.944-8.809,8.809-8.809
		h259.422c4.866,0,8.809,3.943,8.809,8.809C463.154,400.739,459.211,404.683,454.345,404.683z"/>
	<path style="fill:#5C6670;" d="M357.168,442.718H194.923c-4.865,0-8.809-3.943-8.809-8.809c0-4.866,3.944-8.809,8.809-8.809
		h162.245c4.866,0,8.809,3.943,8.809,8.809C365.977,438.775,362.033,442.718,357.168,442.718z"/>
</g>
<path style="fill:#333E48;" d="M346.969,23.49c0-12.919-10.57-23.49-23.49-23.49H198.087c-12.919,0-23.49,10.57-23.49,23.49v465.02
	c0,12.919,10.57,23.49,23.49,23.49h125.392c12.919,0,23.49-10.57,23.49-23.49V23.49z"/>
<circle style="fill:#D49000;" cx="260.785" cy="421.888" r="47.674"/>
<circle style="fill:#333E48;" cx="260.785" cy="421.888" r="20.66"/>
<rect x="209.683" y="50.738" style="fill:#E0E0D3;" width="102.204" height="194.437"/>
<g>
	<path style="fill:#1E252B;" d="M283.292,119.177H238.27c-4.865,0-8.809-3.943-8.809-8.809c0-4.866,3.944-8.809,8.809-8.809h45.022
		c4.866,0,8.809,3.943,8.809,8.809C292.1,115.233,288.158,119.177,283.292,119.177z"/>
	<path style="fill:#1E252B;" d="M283.292,150.888H238.27c-4.865,0-8.809-3.943-8.809-8.809s3.944-8.809,8.809-8.809h45.022
		c4.866,0,8.809,3.943,8.809,8.809C292.1,146.944,288.158,150.888,283.292,150.888z"/>
</g>
<path style="fill:#0082CA;" d="M174.597,23.49c0-12.919-10.57-23.49-23.49-23.49H25.713C12.794,0,2.223,10.57,2.223,23.49v465.02
	c0,12.919,10.57,23.49,23.49,23.49h125.393c12.919,0,23.49-10.57,23.49-23.49V23.49H174.597z"/>
<circle style="fill:#D49000;" cx="88.405" cy="421.888" r="47.674"/>
<circle style="fill:#333E48;" cx="88.405" cy="421.888" r="20.66"/>
<rect x="37.309" y="50.738" style="fill:#E0E0D3;" width="102.204" height="194.437"/>
<g>
	<path style="fill:#1E252B;" d="M110.92,119.177H65.897c-4.865,0-8.809-3.943-8.809-8.809c0-4.866,3.944-8.809,8.809-8.809h45.023
		c4.865,0,8.809,3.943,8.809,8.809C119.729,115.233,115.785,119.177,110.92,119.177z"/>
	<path style="fill:#1E252B;" d="M110.92,150.888H65.897c-4.865,0-8.809-3.943-8.809-8.809s3.944-8.809,8.809-8.809h45.023
		c4.865,0,8.809,3.943,8.809,8.809C119.729,146.944,115.785,150.888,110.92,150.888z"/>
</g>
<g>
</g>
<g>
</g>
<g>
</g>
<g>
</g>
<g>
</g>
<g>
</g>
<g>
</g>
<g>
</g>
<g>
</g>
<g>
</g>
<g>
</g>
<g>
</g>
<g>
</g>
<g>
</g>
<g>
</g>
</svg>
