<?xml version="1.0" encoding="iso-8859-1"?>
<!-- Generator: Adobe Illustrator 19.0.0, SVG Export Plug-In . SVG Version: 6.00 Build 0)  -->
<svg version="1.1" id="Layer_1" xmlns="http://www.w3.org/2000/svg" xmlns:xlink="http://www.w3.org/1999/xlink" x="0px" y="0px"
	 viewBox="0 0 512 512" style="enable-background:new 0 0 512 512;" xml:space="preserve">
<path style="fill:#FFC843;" d="M316.424,153.533v-23.615c0-6.24-5.106-11.346-11.346-11.346h-98.167
	c-6.24,0-11.346,5.106-11.346,11.346v23.615H316.424z"/>
<path style="fill:#333E48;" d="M406.542,159.414h-36.689V88.481c0-3.315-2.8-6.116-6.114-6.116h-215.48
	c-3.315,0-6.114,2.8-6.114,6.116v70.932h-36.69V88.481c0-23.602,19.202-42.804,42.804-42.804h215.479
	c23.602,0,42.804,19.202,42.804,42.804V159.414z"/>
<rect x="105.451" y="121.766" style="opacity:0.2;enable-background:new    ;" width="36.693" height="37.646"/>
<rect x="369.848" y="121.766" style="opacity:0.2;enable-background:new    ;" width="36.693" height="37.646"/>
<path style="fill:#333E48;" d="M512,441.863c0,13.453-11.007,24.46-24.459,24.46H24.459C11.006,466.323,0,455.316,0,441.863V165.35
	c0-13.452,11.006-24.46,24.459-24.46h463.083c13.452,0,24.459,11.007,24.459,24.46L512,441.863L512,441.863z"/>
<g>
	<path style="fill:#FFC843;" d="M444.681,466.323h42.86c13.452,0,24.459-11.007,24.459-24.46v-42.859
		C474.821,399.005,444.681,429.144,444.681,466.323z"/>
	<path style="fill:#FFC843;" d="M67.319,466.323h-42.86C11.006,466.323,0,455.316,0,441.863v-42.859
		C37.179,399.005,67.319,429.144,67.319,466.323z"/>
</g>
<g>
	<rect x="89.793" y="140.884" style="fill:#5C6670;" width="68.003" height="325.428"/>
	<rect x="352.103" y="140.884" style="fill:#5C6670;" width="68.003" height="325.428"/>
</g>
<g>
</g>
<g>
</g>
<g>
</g>
<g>
</g>
<g>
</g>
<g>
</g>
<g>
</g>
<g>
</g>
<g>
</g>
<g>
</g>
<g>
</g>
<g>
</g>
<g>
</g>
<g>
</g>
<g>
</g>
</svg>
