<?xml version="1.0" encoding="iso-8859-1"?>
<!-- Generator: Adobe Illustrator 19.0.0, SVG Export Plug-In . SVG Version: 6.00 Build 0)  -->
<svg version="1.1" id="Layer_1" xmlns="http://www.w3.org/2000/svg" xmlns:xlink="http://www.w3.org/1999/xlink" x="0px" y="0px"
	 viewBox="0 0 512 512" style="enable-background:new 0 0 512 512;" xml:space="preserve">
<rect x="78.46" y="26.701" style="fill:#5C6670;" width="355.073" height="447.273"/>
<rect x="78.46" y="329.73" style="opacity:0.2;enable-background:new    ;" width="74.21" height="40.638"/>
<rect x="101.491" y="114.421" style="opacity:0.2;enable-background:new    ;" width="74.21" height="40.638"/>
<rect x="232.412" y="262.401" style="opacity:0.2;enable-background:new    ;" width="74.21" height="40.638"/>
<rect x="359.324" y="146.085" style="opacity:0.2;enable-background:new    ;" width="74.21" height="40.638"/>
<rect x="78.46" y="26.701" style="opacity:0.2;enable-background:new    ;" width="355.073" height="56.908"/>
<path style="fill:#FFFFFF;" d="M287,209.761v-99.108c0-6.813,5.574-12.388,12.388-12.388h77.366c6.814,0,12.388,5.575,12.388,12.388
	v99.108H287z"/>
<rect x="307.937" y="119.373" style="fill:#0055B8;" width="60.273" height="90.393"/>
<rect x="286.999" y="190.559" style="opacity:0.2;enable-background:new    ;" width="102.138" height="19.204"/>
<path style="fill:#333E48;" d="M278.138,227.656c0,3.784,3.097,6.882,6.882,6.882h106.104c3.784,0,6.882-3.097,6.882-6.882v-15.142
	c0-3.787-3.097-6.884-6.882-6.884H285.02c-3.784,0-6.882,3.097-6.882,6.884V227.656z"/>
<rect x="356.771" y="205.635" style="opacity:0.2;enable-background:new    ;" width="16.435" height="28.909"/>
<rect x="302.941" y="205.635" style="opacity:0.2;enable-background:new    ;" width="16.435" height="28.909"/>
<path style="fill:#FFFFFF;" d="M224.999,209.761v-99.108c0-6.813-5.574-12.388-12.388-12.388h-77.366
	c-6.814,0-12.388,5.575-12.388,12.388v99.108H224.999z"/>
<rect x="143.795" y="119.373" style="fill:#0055B8;" width="60.273" height="90.393"/>
<rect x="122.857" y="190.559" style="opacity:0.2;enable-background:new    ;" width="102.138" height="19.204"/>
<path style="fill:#333E48;" d="M233.861,227.656c0,3.784-3.097,6.882-6.882,6.882H120.875c-3.784,0-6.882-3.097-6.882-6.882v-15.142
	c0-3.787,3.097-6.884,6.882-6.884h106.104c3.784,0,6.882,3.097,6.882,6.884V227.656z"/>
<rect x="138.788" y="205.635" style="opacity:0.2;enable-background:new    ;" width="16.435" height="28.909"/>
<rect x="192.629" y="205.635" style="opacity:0.2;enable-background:new    ;" width="16.435" height="28.909"/>
<path style="fill:#FFFFFF;" d="M287,389.451v-99.108c0-6.813,5.574-12.388,12.388-12.388h77.366c6.814,0,12.388,5.575,12.388,12.388
	v99.108H287z"/>
<rect x="307.937" y="299.063" style="fill:#0055B8;" width="60.273" height="90.393"/>
<rect x="286.999" y="370.248" style="opacity:0.2;enable-background:new    ;" width="102.138" height="19.204"/>
<path style="fill:#333E48;" d="M278.138,407.345c0,3.784,3.097,6.882,6.882,6.882h106.104c3.784,0,6.882-3.097,6.882-6.882v-15.142
	c0-3.787-3.097-6.884-6.882-6.884H285.02c-3.784,0-6.882,3.097-6.882,6.884V407.345z"/>
<rect x="356.771" y="385.324" style="opacity:0.2;enable-background:new    ;" width="16.435" height="28.909"/>
<rect x="302.941" y="385.324" style="opacity:0.2;enable-background:new    ;" width="16.435" height="28.909"/>
<path style="fill:#FFFFFF;" d="M224.999,389.451v-99.108c0-6.813-5.574-12.388-12.388-12.388h-77.366
	c-6.814,0-12.388,5.575-12.388,12.388v99.108H224.999z"/>
<rect x="143.795" y="299.063" style="fill:#0055B8;" width="60.273" height="90.393"/>
<rect x="122.857" y="370.248" style="opacity:0.2;enable-background:new    ;" width="102.138" height="19.204"/>
<path style="fill:#333E48;" d="M233.861,407.345c0,3.784-3.097,6.882-6.882,6.882H120.875c-3.784,0-6.882-3.097-6.882-6.882v-15.142
	c0-3.787,3.097-6.884,6.882-6.884h106.104c3.784,0,6.882,3.097,6.882,6.884V407.345z"/>
<rect x="138.788" y="385.324" style="opacity:0.2;enable-background:new    ;" width="16.435" height="28.909"/>
<rect x="192.629" y="385.324" style="opacity:0.2;enable-background:new    ;" width="16.435" height="28.909"/>
<path style="fill:#E0E0D3;" d="M483.147,500.39c0,6.384-5.225,11.61-11.61,11.61H40.461c-6.386,0-11.61-5.225-11.61-11.61v-33.562
	c0-6.384,5.224-11.61,11.61-11.61h431.077c6.384,0,11.61,5.225,11.61,11.61v33.562H483.147z"/>
<path style="fill:#333E48;" d="M457.527,46.46c0,9.578-7.836,17.416-17.416,17.416H71.886c-9.577,0-17.415-7.836-17.415-17.416
	V17.413C54.473,7.835,62.309,0,71.886,0h368.225c9.578,0,17.416,7.835,17.416,17.415V46.46z"/>
<rect x="247.785" style="opacity:0.2;enable-background:new    ;" width="16.435" height="63.877"/>
<rect x="143.685" style="opacity:0.2;enable-background:new    ;" width="16.435" height="63.877"/>
<rect x="351.873" style="opacity:0.2;enable-background:new    ;" width="16.435" height="63.877"/>
<path style="opacity:0.1;enable-background:new    ;" d="M71.886,0c-9.577,0-17.415,7.835-17.415,17.415v29.046
	c0,9.578,7.836,17.416,17.415,17.416h184.111V0H71.886z"/>
<g>
</g>
<g>
</g>
<g>
</g>
<g>
</g>
<g>
</g>
<g>
</g>
<g>
</g>
<g>
</g>
<g>
</g>
<g>
</g>
<g>
</g>
<g>
</g>
<g>
</g>
<g>
</g>
<g>
</g>
</svg>
