<?xml version="1.0" encoding="iso-8859-1"?>
<!-- Generator: Adobe Illustrator 19.0.0, SVG Export Plug-In . SVG Version: 6.00 Build 0)  -->
<svg version="1.1" id="Layer_1" xmlns="http://www.w3.org/2000/svg" xmlns:xlink="http://www.w3.org/1999/xlink" x="0px" y="0px"
	 viewBox="0 0 512.001 512.001" style="enable-background:new 0 0 512.001 512.001;" xml:space="preserve">
<path style="fill:#5C6670;" d="M484.514,42.965C484.514,19.334,465.18,0,441.549,0H70.45c-23.63,0-42.964,19.334-42.964,42.965
	v426.07c0,23.63,19.334,42.965,42.965,42.965h371.1c23.63,0,42.965-19.334,42.965-42.965V42.965H484.514z"/>
<path style="fill:#333E48;" d="M441.549,0H70.45c-23.63,0-42.964,19.334-42.964,42.965v127.483h457.029V42.965
	C484.514,19.334,465.18,0,441.549,0z"/>
<path style="fill:#0082CA;" d="M417.286,56.171c0-7.09-5.8-12.89-12.891-12.89h-296.79c-7.091,0-12.891,5.8-12.891,12.89v58.104
	c0,7.09,5.8,12.89,12.891,12.89h296.79c7.091,0,12.891-5.8,12.891-12.89V56.171z"/>
<g>
	<path style="fill:#FFFFFF;" d="M380.222,112.774c-4.635,0-8.393-3.757-8.393-8.393V66.068c0-4.637,3.758-8.393,8.393-8.393
		c4.635,0,8.393,3.757,8.393,8.393v38.313C388.616,109.016,384.858,112.774,380.222,112.774z"/>
	<path style="fill:#FFFFFF;" d="M344.41,112.774c-4.635,0-8.393-3.757-8.393-8.393V66.068c0-4.637,3.758-8.393,8.393-8.393
		c4.635,0,8.393,3.757,8.393,8.393v38.313C352.804,109.016,349.046,112.774,344.41,112.774z"/>
	<path style="fill:#FFFFFF;" d="M308.598,112.774c-4.635,0-8.393-3.757-8.393-8.393V66.068c0-4.637,3.758-8.393,8.393-8.393
		c4.635,0,8.393,3.757,8.393,8.393v38.313C316.992,109.016,313.234,112.774,308.598,112.774z"/>
</g>
<path style="fill:#D49000;" d="M334.315,319.817c0-7.876,6.445-14.321,14.321-14.321h72.232c7.878,0,14.321,6.445,14.321,14.321
	v133.214c0,7.878-6.445,14.321-14.321,14.321h-72.232c-7.878,0-14.321-6.444-14.321-14.321V319.817z"/>
<g>
	<path style="fill:#333E48;" d="M334.315,220.987c0-7.876,6.445-14.321,14.321-14.321h72.232c7.878,0,14.321,6.445,14.321,14.321
		v34.384c0,7.876-6.445,14.321-14.321,14.321h-72.232c-7.878,0-14.321-6.445-14.321-14.321V220.987z"/>
	<path style="fill:#333E48;" d="M205.562,220.987c0-7.876,6.445-14.321,14.321-14.321h72.233c7.878,0,14.321,6.445,14.321,14.321
		v34.384c0,7.876-6.445,14.321-14.321,14.321h-72.233c-7.876,0-14.321-6.445-14.321-14.321V220.987z"/>
	<path style="fill:#333E48;" d="M76.807,220.987c0-7.876,6.445-14.321,14.321-14.321h72.233c7.876,0,14.321,6.445,14.321,14.321
		v34.384c0,7.876-6.445,14.321-14.321,14.321H91.129c-7.878,0-14.321-6.445-14.321-14.321V220.987z"/>
	<path style="fill:#333E48;" d="M205.562,319.817c0-7.876,6.445-14.321,14.321-14.321h72.233c7.878,0,14.321,6.445,14.321,14.321
		v34.384c0,7.876-6.445,14.321-14.321,14.321h-72.233c-7.876,0-14.321-6.445-14.321-14.321V319.817z"/>
	<path style="fill:#333E48;" d="M76.807,319.817c0-7.876,6.445-14.321,14.321-14.321h72.233c7.876,0,14.321,6.445,14.321,14.321
		v34.384c0,7.876-6.445,14.321-14.321,14.321H91.129c-7.878,0-14.321-6.445-14.321-14.321V319.817z"/>
	<path style="fill:#333E48;" d="M205.562,418.648c0-7.876,6.445-14.321,14.321-14.321h72.233c7.878,0,14.321,6.445,14.321,14.321
		v34.384c0,7.876-6.445,14.321-14.321,14.321h-72.233c-7.876,0-14.321-6.445-14.321-14.321V418.648z"/>
	<path style="fill:#333E48;" d="M76.807,418.648c0-7.876,6.445-14.321,14.321-14.321h72.233c7.876,0,14.321,6.445,14.321,14.321
		v34.384c0,7.876-6.445,14.321-14.321,14.321H91.129c-7.878,0-14.321-6.445-14.321-14.321V418.648z"/>
</g>
<g>
</g>
<g>
</g>
<g>
</g>
<g>
</g>
<g>
</g>
<g>
</g>
<g>
</g>
<g>
</g>
<g>
</g>
<g>
</g>
<g>
</g>
<g>
</g>
<g>
</g>
<g>
</g>
<g>
</g>
</svg>
