<?xml version="1.0" encoding="iso-8859-1"?>
<!-- Generator: Adobe Illustrator 19.0.0, SVG Export Plug-In . SVG Version: 6.00 Build 0)  -->
<svg version="1.1" id="Layer_1" xmlns="http://www.w3.org/2000/svg" xmlns:xlink="http://www.w3.org/1999/xlink" x="0px" y="0px"
	 viewBox="0 0 512.001 512.001" style="enable-background:new 0 0 512.001 512.001;" xml:space="preserve">
<path style="fill:#E0E0D3;" d="M512,79.647c0-22.449-18.367-40.817-40.817-40.817H40.817C18.367,38.83,0,57.198,0,79.647v385.098
	c0,22.449,18.367,40.817,40.817,40.817h430.367c22.449,0,40.817-18.368,40.817-40.817V79.647H512z"/>
<path style="fill:#0082CA;" d="M471.183,38.83H40.817C18.367,38.83,0,57.198,0,79.647v80.934h512V79.647
	C512,57.198,493.633,38.83,471.183,38.83z"/>
<g>
	<circle style="fill:#5C6670;" cx="256.001" cy="247.223" r="52.033"/>
	<circle style="fill:#5C6670;" cx="100.317" cy="247.223" r="52.034"/>
</g>
<circle style="fill:#0055B8;" cx="411.684" cy="247.223" r="52.033"/>
<g>
	<circle style="fill:#5C6670;" cx="256.001" cy="401.591" r="52.033"/>
	<circle style="fill:#5C6670;" cx="100.317" cy="401.591" r="52.034"/>
	<circle style="fill:#5C6670;" cx="411.684" cy="401.591" r="52.033"/>
</g>
<g>
	<path style="fill:#FFFFFF;" d="M323.254,89.81H188.746c-4.62,0-8.365-3.744-8.365-8.365c0-4.621,3.745-8.365,8.365-8.365h134.508
		c4.62,0,8.365,3.744,8.365,8.365C331.62,86.066,327.874,89.81,323.254,89.81z"/>
	<path style="fill:#FFFFFF;" d="M295.162,126.739h-78.326c-4.62,0-8.365-3.744-8.365-8.365c0-4.621,3.745-8.365,8.365-8.365h78.326
		c4.62,0,8.365,3.744,8.365,8.365C303.528,122.994,299.782,126.739,295.162,126.739z"/>
</g>
<path style="fill:#333E48;" d="M128.005,87.061c0,15.29-12.394,27.684-27.684,27.684s-27.684-12.394-27.684-27.684V34.123
	c0-15.29,12.394-27.684,27.684-27.684s27.684,12.394,27.684,27.684V87.061z"/>
<path style="opacity:0.1;enable-background:new    ;" d="M72.638,34.123v52.938c0,15.29,12.394,27.684,27.684,27.684V6.438
	C85.032,6.438,72.638,18.834,72.638,34.123z"/>
<path style="fill:#333E48;" d="M439.362,87.061c0,15.29-12.394,27.684-27.684,27.684c-15.288,0-27.684-12.394-27.684-27.684V34.123
	c0-15.29,12.394-27.684,27.684-27.684s27.684,12.394,27.684,27.684V87.061z"/>
<path style="opacity:0.1;enable-background:new    ;" d="M383.995,34.123v52.938c0,15.29,12.394,27.684,27.684,27.684V6.438
	C396.39,6.438,383.995,18.834,383.995,34.123z"/>
<g>
</g>
<g>
</g>
<g>
</g>
<g>
</g>
<g>
</g>
<g>
</g>
<g>
</g>
<g>
</g>
<g>
</g>
<g>
</g>
<g>
</g>
<g>
</g>
<g>
</g>
<g>
</g>
<g>
</g>
</svg>
