<?xml version="1.0" encoding="iso-8859-1"?>
<!-- Generator: Adobe Illustrator 19.0.0, SVG Export Plug-In . SVG Version: 6.00 Build 0)  -->
<svg version="1.1" id="Layer_1" xmlns="http://www.w3.org/2000/svg" xmlns:xlink="http://www.w3.org/1999/xlink" x="0px" y="0px"
	 viewBox="0 0 512 512" style="enable-background:new 0 0 512 512;" xml:space="preserve">
<path style="fill:#0055B8;" d="M27.032,49.52h325.313c14.866,0,27.03,12.164,27.03,27.03v145.922
	c0,14.868-12.165,27.031-27.03,27.031H56.852l-37.046,34.408C8.914,294.026,0,290.141,0,275.274V76.549
	C0,61.682,12.165,49.52,27.032,49.52z"/>
<g>
	<path style="fill:#FFFFFF;" d="M308.421,130.128H70.957c-4.809,0-8.708-3.899-8.708-8.708s3.899-8.708,8.708-8.708h237.462
		c4.811,0,8.708,3.899,8.708,8.708C317.129,126.229,313.23,130.128,308.421,130.128z"/>
	<path style="fill:#FFFFFF;" d="M253.938,187.251H70.957c-4.809,0-8.708-3.899-8.708-8.708c0-4.809,3.899-8.708,8.708-8.708h182.981
		c4.809,0,8.71,3.899,8.71,8.708C262.648,183.352,258.748,187.251,253.938,187.251z"/>
</g>
<path style="fill:#0082CA;" d="M484.967,222.457H159.654c-14.866,0-27.031,12.164-27.031,27.03v145.922
	c0,14.868,12.165,27.031,27.031,27.031h295.494l37.046,34.408c10.892,10.117,19.806,6.231,19.806-8.636V249.487
	C512,234.62,499.835,222.457,484.967,222.457z"/>
<g>
	<path style="fill:#FFFFFF;" d="M441.042,303.066H203.581c-4.809,0-8.708-3.899-8.708-8.708c0-4.809,3.899-8.708,8.708-8.708
		h237.462c4.811,0,8.708,3.899,8.708,8.708C449.75,299.167,445.852,303.066,441.042,303.066z"/>
	<path style="fill:#FFFFFF;" d="M441.042,360.188H258.06c-4.809,0-8.708-3.899-8.708-8.708s3.899-8.708,8.708-8.708h182.981
		c4.811,0,8.708,3.899,8.708,8.708S445.852,360.188,441.042,360.188z"/>
</g>
<g>
</g>
<g>
</g>
<g>
</g>
<g>
</g>
<g>
</g>
<g>
</g>
<g>
</g>
<g>
</g>
<g>
</g>
<g>
</g>
<g>
</g>
<g>
</g>
<g>
</g>
<g>
</g>
<g>
</g>
</svg>
