<?xml version="1.0" encoding="iso-8859-1"?>
<!-- Generator: Adobe Illustrator 19.0.0, SVG Export Plug-In . SVG Version: 6.00 Build 0)  -->
<svg version="1.1" id="Layer_1" xmlns="http://www.w3.org/2000/svg" xmlns:xlink="http://www.w3.org/1999/xlink" x="0px" y="0px"
	 viewBox="0 0 512 512" style="enable-background:new 0 0 512 512;" xml:space="preserve">
<path style="fill:#0055B8;" d="M406.557,207.936c-8.74-67.932-66.786-120.423-137.097-120.423
	c-47.936,0-90.17,24.405-114.967,61.463c-5.333-0.625-10.757-0.956-16.258-0.956C61.892,148.019,0,209.907,0,286.253
	c0,76.346,61.892,138.235,138.235,138.235h265.468c59.811,0,108.297-48.485,108.297-108.295
	C512,257.336,465.047,209.449,406.557,207.936z"/>
<g>
	<path style="fill:#FFFFFF;" d="M148.935,261.423c-2.177,0-4.355-0.83-6.016-2.491c-3.323-3.323-3.323-8.71,0-12.033
		c30.249-30.252,70.41-46.911,113.083-46.911c42.671,0,82.831,16.659,113.081,46.908c3.324,3.323,3.324,8.71,0.001,12.033
		c-3.324,3.324-8.711,3.323-12.033,0.001c-27.037-27.035-62.924-41.925-101.05-41.925c-38.128,0-74.015,14.889-101.051,41.926
		C153.288,260.592,151.112,261.423,148.935,261.423z"/>
	<path style="fill:#FFFFFF;" d="M186.137,298.627c-2.177,0-4.355-0.83-6.017-2.492c-3.323-3.323-3.322-8.71,0.001-12.032
		c20.3-20.299,47.249-31.478,75.88-31.478c28.629,0,55.576,11.177,75.876,31.472c3.324,3.323,3.324,8.71,0.001,12.032
		c-3.323,3.323-8.71,3.323-12.032,0.001c-17.086-17.082-39.759-26.49-63.844-26.49c-24.086,0-46.762,9.409-63.847,26.494
		C190.492,297.797,188.314,298.627,186.137,298.627z"/>
	<path style="fill:#FFFFFF;" d="M288.679,335.816c-2.178,0-4.355-0.83-6.017-2.492c-7.122-7.123-16.591-11.046-26.661-11.046
		c-10.069,0-19.537,3.923-26.659,11.045c-3.324,3.324-8.709,3.323-12.033,0.001c-3.323-3.323-3.323-8.71,0-12.032
		c10.337-10.337,24.078-16.031,38.692-16.031c14.616,0,28.358,5.694,38.694,16.032c3.323,3.323,3.323,8.71-0.001,12.032
		C293.033,334.985,290.856,335.816,288.679,335.816z"/>
	<circle style="fill:#FFFFFF;" cx="256.005" cy="359.985" r="14.606"/>
</g>
<g>
</g>
<g>
</g>
<g>
</g>
<g>
</g>
<g>
</g>
<g>
</g>
<g>
</g>
<g>
</g>
<g>
</g>
<g>
</g>
<g>
</g>
<g>
</g>
<g>
</g>
<g>
</g>
<g>
</g>
</svg>
