<?xml version="1.0" encoding="iso-8859-1"?>
<!-- Generator: Adobe Illustrator 19.0.0, SVG Export Plug-In . SVG Version: 6.00 Build 0)  -->
<svg version="1.1" id="Layer_1" xmlns="http://www.w3.org/2000/svg" xmlns:xlink="http://www.w3.org/1999/xlink" x="0px" y="0px"
	 viewBox="0 0 512 512" style="enable-background:new 0 0 512 512;" xml:space="preserve">
<path style="fill:#5C6670;" d="M291.511,8.018c0-4.41-3.607-8.018-8.018-8.018h-19.474c-4.41,0-8.018,3.609-8.018,8.018v108.817
	c0,4.41,3.609,8.018,8.018,8.018h19.474c4.411,0,8.018-3.609,8.018-8.018V8.018z"/>
<path style="fill:#E0E0D3;" d="M384.889,96.001c0-9.45-7.732-17.182-17.182-17.182H144.294c-9.449,0-17.182,7.732-17.182,17.182
	v17.861c0,9.45,7.732,17.182,17.182,17.182h223.414c9.45,0,17.182-7.732,17.182-17.182V96.001H384.889z"/>
<path style="opacity:0.1;enable-background:new    ;" d="M127.112,96.001v17.861c0,9.45,7.732,17.182,17.182,17.182h223.414
	c9.45,0,17.182-7.732,17.182-17.182V96.001H127.112z"/>
<path style="fill:#D49000;" d="M410.357,170.541c1.159-9.379-5.627-17.052-15.076-17.052H116.717
	c-9.449,0-16.233,7.673-15.074,17.052l40.063,324.407c1.159,9.377,9.837,17.052,19.288,17.052h190.011
	c9.449,0,18.131-7.675,19.29-17.052L410.357,170.541z"/>
<circle style="fill:#FFFFFF;" cx="255.997" cy="332.748" r="87.06"/>
<ellipse style="fill:#C29178;" cx="255.997" cy="332.748" rx="43.288" ry="59.054"/>
<path style="opacity:0.2;enable-background:new    ;" d="M395.28,153.49H116.717c-9.449,0-16.233,7.673-15.074,17.052l4.118,33.348
	h300.477l4.118-33.348C411.517,161.162,404.731,153.49,395.28,153.49z"/>
<path style="fill:#E0E0D3;" d="M435.4,123.707c0-9.449-7.732-17.18-17.182-17.18H93.782c-9.449,0-17.182,7.732-17.182,17.18v35.73
	c0,9.449,7.732,17.18,17.182,17.18h324.435c9.45,0,17.182-7.732,17.182-17.18V123.707z"/>
<g>
</g>
<g>
</g>
<g>
</g>
<g>
</g>
<g>
</g>
<g>
</g>
<g>
</g>
<g>
</g>
<g>
</g>
<g>
</g>
<g>
</g>
<g>
</g>
<g>
</g>
<g>
</g>
<g>
</g>
</svg>
