<?xml version="1.0" encoding="iso-8859-1"?>
<!-- Generator: Adobe Illustrator 19.0.0, SVG Export Plug-In . SVG Version: 6.00 Build 0)  -->
<svg version="1.1" id="Layer_1" xmlns="http://www.w3.org/2000/svg" xmlns:xlink="http://www.w3.org/1999/xlink" x="0px" y="0px"
	 viewBox="0 0 512 512" style="enable-background:new 0 0 512 512;" xml:space="preserve">
<rect x="194.186" y="368.849" style="fill:#333E48;" width="123.618" height="60.643"/>
<rect x="194.186" y="368.849" style="opacity:0.2;enable-background:new    ;" width="123.618" height="26.904"/>
<path style="fill:#5C6670;" d="M350.796,464.756c10.703,0,19.381-8.675,19.381-19.379c0-10.706-8.678-19.381-19.381-19.381H161.205
	c-10.703,0-19.381,8.675-19.381,19.381c0,10.703,8.678,19.379,19.381,19.379H350.796z"/>
<path style="fill:#333E48;" d="M512,70.569c0-12.828-10.496-23.324-23.324-23.324H23.324C10.496,47.244,0,57.74,0,70.569v284.82
	c0,12.828,10.496,23.324,23.324,23.324h465.352c12.828,0,23.324-10.496,23.324-23.324V70.569z"/>
<rect x="34.986" y="82.229" style="fill:#FFFFFF;" width="442.029" height="261.499"/>
<g>
	<path style="fill:#333E48;" d="M312.723,138.247H69.308c-4.83,0-8.747-3.915-8.747-8.747c0-4.832,3.916-8.747,8.747-8.747h243.416
		c4.832,0,8.747,3.915,8.747,8.747C321.47,134.332,317.554,138.247,312.723,138.247z"/>
	<path style="fill:#333E48;" d="M312.723,176.205H69.308c-4.83,0-8.747-3.915-8.747-8.747s3.916-8.747,8.747-8.747h243.416
		c4.832,0,8.747,3.915,8.747,8.747C321.469,172.289,317.554,176.205,312.723,176.205z"/>
	<path style="fill:#333E48;" d="M312.723,214.163H69.308c-4.83,0-8.747-3.915-8.747-8.747s3.916-8.747,8.747-8.747h243.416
		c4.832,0,8.747,3.915,8.747,8.747C321.469,210.247,317.554,214.163,312.723,214.163z"/>
	<path style="fill:#333E48;" d="M442.684,252.121H169.908c-4.832,0-8.747-3.915-8.747-8.747s3.915-8.747,8.747-8.747h272.777
		c4.832,0,8.747,3.915,8.747,8.747C451.431,248.204,447.514,252.121,442.684,252.121z"/>
	<path style="fill:#333E48;" d="M442.684,290.077H169.908c-4.832,0-8.747-3.915-8.747-8.747c0-4.832,3.915-8.747,8.747-8.747
		h272.777c4.832,0,8.747,3.915,8.747,8.747C451.431,286.162,447.514,290.077,442.684,290.077z"/>
</g>
<rect x="362.995" y="129.496" style="fill:#0055B8;" width="75.92" height="75.92"/>
<rect x="69.308" y="243.376" style="fill:#0082CA;" width="68.724" height="37.958"/>
<path style="fill:#5C6670;" d="M0,332.198v23.19c0,12.828,10.496,23.324,23.324,23.324h465.352
	c12.828,0,23.324-10.496,23.324-23.324v-23.19H0z"/>
<circle style="fill:#1E252B;" cx="255.995" cy="356.615" r="9.33"/>
<g>
</g>
<g>
</g>
<g>
</g>
<g>
</g>
<g>
</g>
<g>
</g>
<g>
</g>
<g>
</g>
<g>
</g>
<g>
</g>
<g>
</g>
<g>
</g>
<g>
</g>
<g>
</g>
<g>
</g>
</svg>
