<?xml version="1.0" encoding="iso-8859-1"?>
<!-- Generator: Adobe Illustrator 19.0.0, SVG Export Plug-In . SVG Version: 6.00 Build 0)  -->
<svg version="1.1" id="Layer_1" xmlns="http://www.w3.org/2000/svg" xmlns:xlink="http://www.w3.org/1999/xlink" x="0px" y="0px"
	 viewBox="0 0 512 512" style="enable-background:new 0 0 512 512;" xml:space="preserve">
<rect x="194.186" y="368.849" style="fill:#333E48;" width="123.618" height="60.643"/>
<rect x="194.186" y="368.849" style="opacity:0.2;enable-background:new    ;" width="123.618" height="26.904"/>
<path style="fill:#5C6670;" d="M350.796,464.756c10.703,0,19.381-8.675,19.381-19.379c0-10.706-8.677-19.381-19.381-19.381H161.205
	c-10.703,0-19.381,8.675-19.381,19.381c0,10.703,8.677,19.379,19.381,19.379H350.796z"/>
<path style="fill:#333E48;" d="M512,70.569c0-12.828-10.496-23.324-23.324-23.324H23.324C10.496,47.244,0,57.74,0,70.569v284.82
	c0,12.828,10.496,23.324,23.324,23.324h465.352c12.828,0,23.324-10.496,23.324-23.324V70.569z"/>
<rect x="34.986" y="82.229" style="fill:#FFFFFF;" width="442.029" height="261.499"/>
<path style="fill:#1E252B;" d="M376.828,204.493l34.183,34.183c3.174,3.176,3.176,8.371,0,11.545l-9.396,9.398
	c-3.174,3.176-8.37,3.176-11.544,0.001l-34.185-34.183l-12.111,29.99c-1.681,4.162-4.05,4.032-5.264-0.29l-24.348-86.712
	c-1.214-4.322,1.329-6.867,5.653-5.653l86.712,24.348c4.323,1.214,4.453,3.583,0.29,5.264L376.828,204.493z"/>
<path style="fill:#5C6670;" d="M0,332.198v23.19c0,12.828,10.496,23.324,23.324,23.324h465.352
	c12.828,0,23.324-10.496,23.324-23.324v-23.19H0z"/>
<circle style="fill:#1E252B;" cx="255.995" cy="356.615" r="9.33"/>
<g>
</g>
<g>
</g>
<g>
</g>
<g>
</g>
<g>
</g>
<g>
</g>
<g>
</g>
<g>
</g>
<g>
</g>
<g>
</g>
<g>
</g>
<g>
</g>
<g>
</g>
<g>
</g>
<g>
</g>
</svg>
