<?xml version="1.0" encoding="iso-8859-1"?>
<!-- Generator: Adobe Illustrator 19.0.0, SVG Export Plug-In . SVG Version: 6.00 Build 0)  -->
<svg version="1.1" id="Layer_1" xmlns="http://www.w3.org/2000/svg" xmlns:xlink="http://www.w3.org/1999/xlink" x="0px" y="0px"
	 viewBox="0 0 511.995 511.995" style="enable-background:new 0 0 511.995 511.995;" xml:space="preserve">
<rect x="75.645" style="fill:#E0E0D3;" width="409.731" height="511.995"/>
<g>
	<path style="fill:#333E48;" d="M405.4,446.692c-2.158,0-4.29-0.775-5.97-2.263c-2.687-2.38-3.703-6.128-2.585-9.54
		c0.658-2.008,1.018-4.075,1.147-6.144c-5.749,8.662-13.05,15.489-21.618,17.369c-5.963,1.309-14.943,0.805-23.849-9.036
		c-14.854-16.411-4.724-34.819,2.671-48.261c8.722-15.851,8.476-18.363,3.764-21.454c-3.626-2.38-9.826-0.876-14.386,0.804
		c-28.727,10.588-67.946,54.104-71.237,65.392c-1.392,4.772-6.39,7.512-11.16,6.12c-4.772-1.392-7.512-6.389-6.12-11.16
		c5.362-18.382,49.752-65.247,82.294-77.241c12.282-4.528,22.54-4.178,30.485,1.036c8.827,5.792,12.635,14.088,11.012,23.988
		c-1.18,7.195-5.095,14.311-8.881,21.192c-10.22,18.574-9.34,22.816-5.096,27.504c3.769,4.164,5.934,3.689,6.644,3.534
		c5.407-1.187,14.065-12.204,19.194-28.584c1.058-3.383,4.004-5.828,7.524-6.247c3.524-0.421,6.958,1.267,8.782,4.306
		c0.72,1.199,4.441,7.675,6.562,16.654c2.65-5.078,4.928-10.822,6.965-16.406c0.977-2.676,3.161-4.733,5.892-5.544
		c2.731-0.81,5.686-0.281,7.963,1.428c4.111,3.084,17.608,14.292,18.656,29.045c0.378,5.316-0.772,13.252-8.393,20.873
		c-3.515,3.515-9.214,3.515-12.728,0s-3.515-9.214,0-12.727c3.058-3.058,3.271-5.384,3.166-6.869
		c-0.163-2.305-1.307-4.738-2.87-7.026c-5.592,12.368-12.841,23.182-24.018,28.41C407.993,446.414,406.692,446.692,405.4,446.692z"
		/>
	<path style="fill:#333E48;" d="M287.504,461.238c-0.145,0-0.29-0.004-0.436-0.01c-4.964-0.238-8.798-4.454-8.561-9.419
		c0.481-10.078,15.251-28.732,18.206-32.369c8.803-10.83,21.844-24.085,33.981-25.722c4.931-0.664,9.457,2.791,10.122,7.716
		c0.665,4.926-2.79,9.457-7.716,10.122c-3.504,0.473-11.729,6.348-21.508,18.129c-8.934,10.764-14.441,20.635-15.13,23.344
		C296.055,457.673,292.156,461.238,287.504,461.238z"/>
</g>
<g>
	<path style="fill:#5C6670;" d="M424.036,83.067H136.981c-4.97,0-9-4.03-9-9s4.03-9,9-9h287.055c4.97,0,9,4.03,9,9
		S429.006,83.067,424.036,83.067z"/>
	<path style="fill:#5C6670;" d="M424.036,125.155H316.507c-4.97,0-9-4.03-9-9s4.03-9,9-9h107.529c4.97,0,9,4.03,9,9
		C433.036,121.126,429.006,125.155,424.036,125.155z"/>
	<path style="fill:#5C6670;" d="M288.906,125.155H136.981c-4.97,0-9-4.03-9-9s4.03-9,9-9h151.926c4.97,0,9,4.03,9,9
		C297.906,121.126,293.877,125.155,288.906,125.155z"/>
	<path style="fill:#5C6670;" d="M424.036,167.244H136.981c-4.97,0-9-4.03-9-9s4.03-9,9-9h287.055c4.97,0,9,4.03,9,9
		S429.006,167.244,424.036,167.244z"/>
	<path style="fill:#5C6670;" d="M424.036,209.332h-65.529c-4.97,0-9-4.03-9-9s4.03-9,9-9h65.529c4.97,0,9,4.03,9,9
		S429.006,209.332,424.036,209.332z"/>
	<path style="fill:#5C6670;" d="M330.908,209.332H136.981c-4.97,0-9-4.03-9-9s4.03-9,9-9h193.926c4.97,0,9,4.03,9,9
		C339.908,205.302,335.878,209.332,330.908,209.332z"/>
	<path style="fill:#5C6670;" d="M424.036,251.42H263.707c-4.97,0-9-4.03-9-9c0-4.97,4.03-9,9-9h160.329c4.97,0,9,4.03,9,9
		C433.036,247.39,429.006,251.42,424.036,251.42z"/>
	<path style="fill:#5C6670;" d="M237.307,251.42H136.982c-4.97,0-9-4.03-9-9c0-4.97,4.03-9,9-9h100.325c4.97,0,9,4.03,9,9
		C246.307,247.39,242.278,251.42,237.307,251.42z"/>
	<path style="fill:#5C6670;" d="M351.308,293.507H136.981c-4.97,0-9-4.03-9-9s4.03-9,9-9h214.326c4.97,0,9,4.03,9,9
		C360.308,289.478,356.278,293.507,351.308,293.507z"/>
</g>
<path style="fill:#333E48;" d="M203.526,467.132c-2.303,0-4.607-0.878-6.364-2.636l-18.295-18.297
	c-3.515-3.515-3.515-9.214,0-12.727c3.515-3.515,9.214-3.515,12.728,0l18.295,18.297c3.515,3.515,3.515,9.214,0,12.727
	C208.133,466.253,205.829,467.132,203.526,467.132z"/>
<path style="opacity:0.3;enable-background:new    ;" d="M191.595,433.471c-3.514-3.515-9.212-3.515-12.728,0
	c-3.515,3.515-3.515,9.212,0,12.727l6.055,6.055l12.727-12.727L191.595,433.471z"/>
<path style="fill:#333E48;" d="M67.185,397.556l-37.929-37.929c-3.515-3.515-3.515-9.212,0-12.727l16.276-16.276l12.727,12.728
	l-9.911,9.912l31.565,31.565L67.185,397.556z"/>
<rect x="42.493" y="331.874" transform="matrix(-0.7071 0.7071 -0.7071 -0.7071 322.9649 547.9714)" style="opacity:0.2;enable-background:new    ;" width="11.002" height="18"/>
<rect x="103.246" y="297.291" transform="matrix(-0.7071 0.7071 -0.7071 -0.7071 484.6703 560.8287)" style="fill:#0082CA;" width="45.876" height="167.003"/>
<rect x="33.696" y="296.379" transform="matrix(-0.7071 0.7071 -0.7071 -0.7071 316.7599 491.2729)" style="fill:#333E48;" width="45.876" height="29.721"/>
<g>
	
		<rect x="135.499" y="376.163" transform="matrix(-0.7071 -0.7071 0.7071 -0.7071 -35.5317 783.4836)" style="fill:#FFFFFF;" width="18" height="45.876"/>
	
		<rect x="112.519" y="353.178" transform="matrix(-0.7071 -0.7071 0.7071 -0.7071 -58.5086 727.9966)" style="fill:#FFFFFF;" width="18" height="45.876"/>
</g>
<g>
</g>
<g>
</g>
<g>
</g>
<g>
</g>
<g>
</g>
<g>
</g>
<g>
</g>
<g>
</g>
<g>
</g>
<g>
</g>
<g>
</g>
<g>
</g>
<g>
</g>
<g>
</g>
<g>
</g>
</svg>
