<?xml version="1.0" encoding="iso-8859-1"?>
<!-- Generator: Adobe Illustrator 19.0.0, SVG Export Plug-In . SVG Version: 6.00 Build 0)  -->
<svg version="1.1" id="Layer_1" xmlns="http://www.w3.org/2000/svg" xmlns:xlink="http://www.w3.org/1999/xlink" x="0px" y="0px"
	 viewBox="0 0 511.995 511.995" style="enable-background:new 0 0 511.995 511.995;" xml:space="preserve">
<rect x="51.132" style="fill:#E0E0D3;" width="409.731" height="511.995"/>
<path style="fill:#1E252B;" d="M399.528,83.067H112.474c-4.972,0-9-4.03-9-9s4.028-9,9-9h287.055c4.972,0,9,4.03,9,9
	C408.528,79.037,404.5,83.067,399.528,83.067z"/>
<g>
	<path style="fill:#5C6670;" d="M399.528,167.244H291.999c-4.972,0-9-4.03-9-9s4.028-9,9-9h107.529c4.972,0,9,4.03,9,9
		S404.5,167.244,399.528,167.244z"/>
	<path style="fill:#5C6670;" d="M264.399,167.244H112.474c-4.972,0-9-4.03-9-9s4.028-9,9-9H264.4c4.972,0,9,4.03,9,9
		C273.399,163.214,269.37,167.244,264.399,167.244z"/>
	<path style="fill:#5C6670;" d="M399.528,209.332H112.474c-4.972,0-9-4.03-9-9s4.028-9,9-9h287.055c4.972,0,9,4.03,9,9
		C408.528,205.302,404.5,209.332,399.528,209.332z"/>
	<path style="fill:#5C6670;" d="M399.528,251.42H233.436c-4.972,0-9-4.03-9-9c0-4.97,4.028-9,9-9h166.092c4.972,0,9,4.03,9,9
		C408.528,247.39,404.5,251.42,399.528,251.42z"/>
	<path style="fill:#5C6670;" d="M205.836,251.42h-93.362c-4.972,0-9-4.03-9-9c0-4.97,4.028-9,9-9h93.363c4.972,0,9,4.03,9,9
		C214.836,247.39,210.808,251.42,205.836,251.42z"/>
	<path style="fill:#5C6670;" d="M399.528,293.507h-96.729c-4.972,0-9-4.03-9-9s4.028-9,9-9h96.729c4.972,0,9,4.03,9,9
		S404.5,293.507,399.528,293.507z"/>
	<path style="fill:#5C6670;" d="M276.399,293.507H112.474c-4.972,0-9-4.03-9-9s4.028-9,9-9H276.4c4.972,0,9,4.03,9,9
		C285.399,289.478,281.371,293.507,276.399,293.507z"/>
	<path style="fill:#5C6670;" d="M326.799,335.596H112.474c-4.972,0-9-4.03-9-9s4.028-9,9-9H326.8c4.972,0,9,4.03,9,9
		S331.771,335.596,326.799,335.596z"/>
</g>
<polygon style="fill:#0055B8;" points="412.369,401.602 339.63,401.602 339.63,482.74 376,470.002 412.369,482.74 "/>
<path style="opacity:0.1;enable-background:new    ;" d="M339.63,401.602v24.929c9.535,8.876,22.314,14.315,36.37,14.315
	s26.833-5.438,36.37-14.315v-24.929H339.63z"/>
<circle style="fill:#0082CA;" cx="375.997" cy="387.446" r="43.2"/>
<circle style="fill:#FFC843;" cx="375.997" cy="387.446" r="22.33"/>
<g>
</g>
<g>
</g>
<g>
</g>
<g>
</g>
<g>
</g>
<g>
</g>
<g>
</g>
<g>
</g>
<g>
</g>
<g>
</g>
<g>
</g>
<g>
</g>
<g>
</g>
<g>
</g>
<g>
</g>
</svg>
