<?xml version="1.0" encoding="iso-8859-1"?>
<!-- Generator: Adobe Illustrator 19.0.0, SVG Export Plug-In . SVG Version: 6.00 Build 0)  -->
<svg version="1.1" id="Layer_1" xmlns="http://www.w3.org/2000/svg" xmlns:xlink="http://www.w3.org/1999/xlink" x="0px" y="0px"
	 viewBox="0 0 512 512" style="enable-background:new 0 0 512 512;" xml:space="preserve">
<path style="fill:#0082CA;" d="M512,397.422c0,9.573-7.832,17.405-17.405,17.405H17.405C7.832,414.827,0,406.995,0,397.422V114.578
	c0-9.573,7.832-17.405,17.405-17.405h477.19c9.573,0,17.405,7.832,17.405,17.405V397.422z"/>
<rect y="148.302" style="fill:#1E252B;" width="511.995" height="45.473"/>
<circle style="fill:#FFFFFF;" cx="382.665" cy="330.647" r="34.037"/>
<circle style="fill:#FFC843;" cx="428.695" cy="330.647" r="34.037"/>
<g>
	<path style="fill:#0055B8;" d="M235.114,268.764c0,6.382-5.221,11.603-11.603,11.603H45.98c-6.382,0-11.603-5.221-11.603-11.603
		V257.16c0-6.382,5.221-11.603,11.603-11.603h177.53c6.382,0,11.603,5.221,11.603,11.603V268.764z"/>
	<path style="fill:#0055B8;" d="M174.777,329.101c0,6.382-5.221,11.603-11.603,11.603H45.98c-6.382,0-11.603-5.221-11.603-11.603
		v-11.603c0-6.382,5.221-11.603,11.603-11.603h117.193c6.382,0,11.603,5.221,11.603,11.603V329.101z"/>
</g>
<g>
</g>
<g>
</g>
<g>
</g>
<g>
</g>
<g>
</g>
<g>
</g>
<g>
</g>
<g>
</g>
<g>
</g>
<g>
</g>
<g>
</g>
<g>
</g>
<g>
</g>
<g>
</g>
<g>
</g>
</svg>
