<?xml version="1.0" encoding="iso-8859-1"?>
<!-- Generator: Adobe Illustrator 19.0.0, SVG Export Plug-In . SVG Version: 6.00 Build 0)  -->
<svg version="1.1" id="Layer_1" xmlns="http://www.w3.org/2000/svg" xmlns:xlink="http://www.w3.org/1999/xlink" x="0px" y="0px"
	 viewBox="0 0 512 512" style="enable-background:new 0 0 512 512;" xml:space="preserve">
<rect x="43.409" y="393.666" style="fill:#333E48;" width="425.187" height="16.623"/>
<rect x="43.409" y="393.666" style="opacity:0.2;enable-background:new    ;" width="34.174" height="16.623"/>
<rect x="434.419" y="393.666" style="opacity:0.2;enable-background:new    ;" width="34.174" height="16.623"/>
<rect x="58.868" y="170.728" style="fill:#E0E0D3;" width="148.5" height="40.261"/>
<rect x="21.795" y="257.578" style="fill:#333E48;" width="43.231" height="209.419"/>
<rect x="21.795" y="257.578" style="opacity:0.2;enable-background:new    ;" width="43.231" height="29.146"/>
<rect x="446.986" y="257.578" style="fill:#333E48;" width="43.231" height="209.419"/>
<rect x="446.986" y="257.578" style="opacity:0.2;enable-background:new    ;" width="43.231" height="29.146"/>
<path style="fill:#D49000;" d="M512,224.991c0-9.143-7.48-16.623-16.623-16.623H16.623C7.48,208.368,0,215.848,0,224.991v21.13
	c0,9.143,7.48,16.623,16.623,16.623h478.754c9.143,0,16.623-7.48,16.623-16.623V224.991z"/>
<path style="fill:#333E48;" d="M402.288,189.198h-16.623V82.124c0-11.303-9.195-20.497-20.497-20.497
	c-11.302,0-20.496,9.195-20.496,20.497h-16.623c0-20.469,16.651-37.121,37.12-37.121s37.121,16.652,37.121,37.121V189.198z"/>
<path style="opacity:0.2;enable-background:new    ;" d="M329.757,70.989c-1.108,3.517-1.709,7.258-1.709,11.136h16.623
	c0-4.106,1.225-7.926,3.312-11.136H329.757z"/>
<rect x="385.668" y="173.964" style="opacity:0.2;enable-background:new    ;" width="16.623" height="15.238"/>
<g>
	<path style="fill:#0055B8;" d="M459.173,208.368c0-13.465-10.916-24.381-24.381-24.381h-81.631
		c-13.465,0-24.381,10.916-24.381,24.381H459.173z"/>
	<polygon style="fill:#0055B8;" points="356.57,79.485 316.149,79.485 305.352,116.056 367.366,116.056 	"/>
</g>
<g>
</g>
<g>
</g>
<g>
</g>
<g>
</g>
<g>
</g>
<g>
</g>
<g>
</g>
<g>
</g>
<g>
</g>
<g>
</g>
<g>
</g>
<g>
</g>
<g>
</g>
<g>
</g>
<g>
</g>
</svg>
