<?xml version="1.0" encoding="iso-8859-1"?>
<!-- Generator: Adobe Illustrator 19.0.0, SVG Export Plug-In . SVG Version: 6.00 Build 0)  -->
<svg version="1.1" id="Layer_1" xmlns="http://www.w3.org/2000/svg" xmlns:xlink="http://www.w3.org/1999/xlink" x="0px" y="0px"
	 viewBox="0 0 512 512" style="enable-background:new 0 0 512 512;" xml:space="preserve">
<path style="fill:#0055B8;" d="M512,113.475c0-9.371-7.667-17.038-17.038-17.038H17.038C7.667,96.438,0,104.104,0,113.475v285.05
	c0,9.371,7.667,17.038,17.038,17.038h477.925c9.371,0,17.038-7.667,17.038-17.038V113.475z"/>
<path style="opacity:0.1;enable-background:new    ;" d="M255.996,229.167L1.097,404.469c2.219,5.903,7.617,10.28,14.09,10.988
	l240.809-165.611l240.81,165.611c6.475-0.705,11.874-5.082,14.096-10.985L255.996,229.167z"/>
<path style="opacity:0.2;enable-background:new    ;" d="M494.962,96.438H17.038C7.667,96.438,0,104.104,0,113.475v2.272
	l255.999,178.281l255.999-178.281v-2.272C512,104.104,504.333,96.438,494.962,96.438z"/>
<path style="fill:#0082CA;" d="M494.962,96.438H17.038c-4.228,0-8.1,1.571-11.087,4.144l250.049,174.137l250.049-174.137
	C503.062,98.008,499.19,96.438,494.962,96.438z"/>
<g>
</g>
<g>
</g>
<g>
</g>
<g>
</g>
<g>
</g>
<g>
</g>
<g>
</g>
<g>
</g>
<g>
</g>
<g>
</g>
<g>
</g>
<g>
</g>
<g>
</g>
<g>
</g>
<g>
</g>
</svg>
