<?xml version="1.0" encoding="iso-8859-1"?>
<!-- Generator: Adobe Illustrator 19.0.0, SVG Export Plug-In . SVG Version: 6.00 Build 0)  -->
<svg version="1.1" id="Layer_1" xmlns="http://www.w3.org/2000/svg" xmlns:xlink="http://www.w3.org/1999/xlink" x="0px" y="0px"
	 viewBox="0 0 511.999 511.999" style="enable-background:new 0 0 511.999 511.999;" xml:space="preserve">
<path style="fill:#D49000;" d="M484.673,157.412H202.736c-2.373-12.655-13.525-22.315-26.841-22.315h-62.63
	c-13.318,0-24.467,9.661-26.843,22.315H64.994c-15.029,0-27.326,12.297-27.326,27.326v246.651c0,15.029,12.297,27.326,27.326,27.326
	h419.679c15.029,0,27.326-12.297,27.326-27.326V184.738C511.999,169.709,499.702,157.412,484.673,157.412z"/>
<path style="opacity:0.3;fill:#76531C;enable-background:new    ;" d="M37.668,201.547v229.842
	c0,15.029,12.297,27.326,27.326,27.326h419.679c15.029,0,27.326-12.297,27.326-27.326V201.547H37.668z"/>
<rect x="137.515" y="53.284" style="fill:#E0E0D3;" width="292.048" height="312.626"/>
<g>
	<path style="fill:#5C6670;" d="M385.847,129.584H181.241c-4.7,0-8.508-3.809-8.508-8.508s3.808-8.508,8.508-8.508h204.605
		c4.7,0,8.508,3.809,8.508,8.508C394.355,125.775,390.546,129.584,385.847,129.584z"/>
	<path style="fill:#5C6670;" d="M385.847,177.66H322.93c-4.7,0-8.508-3.809-8.508-8.508s3.808-8.508,8.508-8.508h62.917
		c4.7,0,8.508,3.809,8.508,8.508S390.546,177.66,385.847,177.66z"/>
	<path style="fill:#5C6670;" d="M292.301,177.66H181.242c-4.7,0-8.508-3.809-8.508-8.508s3.808-8.508,8.508-8.508h111.058
		c4.7,0,8.508,3.809,8.508,8.508S297,177.66,292.301,177.66z"/>
</g>
<path style="fill:#FFC843;" d="M474.74,247.725c-2.613-14.801-17.049-26.91-32.078-26.91H22.983
	c-15.029,0-25.185,12.109-22.573,26.91l32.506,184.081c2.615,14.8,17.049,26.91,32.078,26.91h419.679
	c15.029,0,25.185-12.11,22.573-26.91L474.74,247.725z"/>
<g>
</g>
<g>
</g>
<g>
</g>
<g>
</g>
<g>
</g>
<g>
</g>
<g>
</g>
<g>
</g>
<g>
</g>
<g>
</g>
<g>
</g>
<g>
</g>
<g>
</g>
<g>
</g>
<g>
</g>
</svg>
