<?xml version="1.0" encoding="iso-8859-1"?>
<!-- Generator: Adobe Illustrator 19.0.0, SVG Export Plug-In . SVG Version: 6.00 Build 0)  -->
<svg version="1.1" id="Layer_1" xmlns="http://www.w3.org/2000/svg" xmlns:xlink="http://www.w3.org/1999/xlink" x="0px" y="0px"
	 viewBox="0 0 512.001 512.001" style="enable-background:new 0 0 512.001 512.001;" xml:space="preserve">
<path style="fill:#C29178;" d="M307.878,200.543l-58.454-58.451c-15.349-15.35-40.236-15.351-55.587-0.001
	c-15.35,15.349-15.347,40.236,0.003,55.587c15.347,15.346,40.233,15.35,55.583,0.001l30.659,30.657
	c7.674,7.675,20.117,7.675,27.792,0.002C315.55,220.661,315.55,208.218,307.878,200.543z"/>
<rect x="224.801" y="166.385" transform="matrix(-0.7071 0.7071 -0.7071 -0.7071 730.4927 187.4062)" style="fill:#FFBF9E;" width="203.264" height="157.216"/>
<polygon style="opacity:0.1;enable-background:new    ;" points="255.998,204.259 267.015,193.242 378.186,304.415 367.311,315.293 
	"/>
<rect x="373.257" y="104.883" transform="matrix(-0.7071 0.7071 -0.7071 -0.7071 791.9722 38.9369)" style="opacity:0.1;enable-background:new    ;" width="29.331" height="157.216"/>
<rect x="386.268" y="77.368" transform="matrix(-0.7071 0.7071 -0.7071 -0.7071 839.842 -7.1992)" style="fill:#E0E0D3;" width="70.287" height="185.938"/>
<circle style="fill:#5C6670;" cx="471.136" cy="220.049" r="7.895"/>
<path style="fill:#C29178;" d="M367.349,315.331L169.291,117.544L58.119,228.718l197.786,197.785
	c7.674,7.673,20.12,7.674,27.795-0.001c7.671-7.673,7.674-20.118,0-27.793c7.674,7.675,20.117,7.674,27.793,0
	c7.673-7.675,7.675-20.119,0.002-27.793c7.673,7.674,20.117,7.675,27.788,0.001c7.677-7.675,7.677-20.119,0.002-27.794
	c7.675,7.675,20.118,7.675,27.794,0C374.75,335.449,375.023,323.005,367.349,315.331z"/>
<path style="opacity:0.1;enable-background:new    ;" d="M196.457,208.214c-7.674,7.675-7.674,20.118,0.002,27.794
	c7.674,7.674,20.118,7.673,27.791-0.001l31.75-31.75l-27.792-27.793L196.457,208.214z"/>
<rect x="109.405" y="104.886" transform="matrix(0.7071 0.7071 -0.7071 0.7071 166.0894 -33.9874)" style="opacity:0.1;enable-background:new    ;" width="29.332" height="157.216"/>
<rect x="55.446" y="77.365" transform="matrix(0.7071 0.7071 -0.7071 0.7071 146.9772 -14.1668)" style="fill:#E0E0D3;" width="70.287" height="185.938"/>
<circle style="fill:#5C6670;" cx="40.872" cy="220.049" r="7.893"/>
<g>
	<circle style="fill:#FFBF9E;" cx="158.821" cy="329.23" r="19.653"/>
	<circle style="fill:#FFBF9E;" cx="186.616" cy="357.025" r="19.653"/>
	<path style="fill:#FFBF9E;" d="M214.409,365.161c-10.853,0-19.653,8.799-19.652,19.651c-0.001,10.855,8.799,19.655,19.655,19.654
		c10.851,0.001,19.65-8.8,19.649-19.651C234.061,373.96,225.262,365.161,214.409,365.161z"/>
	<circle style="fill:#FFBF9E;" cx="242.206" cy="412.604" r="19.652"/>
	<path style="fill:#FFBF9E;" d="M318.167,142.092c-15.35-15.35-40.237-15.349-55.588,0.001l-58.453,58.451
		c-7.673,7.674-7.673,20.118,0.003,27.795c7.674,7.673,20.118,7.673,27.792-0.002l30.658-30.657
		c15.351,15.348,40.238,15.345,55.584-0.001C333.515,182.328,333.517,157.44,318.167,142.092z"/>
</g>
<g>
</g>
<g>
</g>
<g>
</g>
<g>
</g>
<g>
</g>
<g>
</g>
<g>
</g>
<g>
</g>
<g>
</g>
<g>
</g>
<g>
</g>
<g>
</g>
<g>
</g>
<g>
</g>
<g>
</g>
</svg>
