<?xml version="1.0" encoding="iso-8859-1"?>
<!-- Generator: Adobe Illustrator 19.0.0, SVG Export Plug-In . SVG Version: 6.00 Build 0)  -->
<svg version="1.1" id="Layer_1" xmlns="http://www.w3.org/2000/svg" xmlns:xlink="http://www.w3.org/1999/xlink" x="0px" y="0px"
	 viewBox="0 0 512 512" style="enable-background:new 0 0 512 512;" xml:space="preserve">
<path style="fill:#5C6670;" d="M90.473,479.939C40.585,479.939,0,439.353,0,389.466c0-49.89,40.585-90.475,90.473-90.475h331.053
	c49.887,0,90.474,40.585,90.474,90.475c0,49.887-40.586,90.473-90.474,90.473H90.473z"/>
<path style="fill:#333E48;" d="M421.527,447.755c32.193,0,58.289-26.099,58.289-58.289c0-32.194-26.096-58.29-58.289-58.29H90.473
	c-32.192,0-58.289,26.096-58.289,58.29c0,32.19,26.098,58.289,58.289,58.289L421.527,447.755L421.527,447.755z"/>
<path style="opacity:0.2;enable-background:new    ;" d="M421.526,298.991H90.473c-27.271,0-51.742,12.144-68.343,31.289
	c15.625,47.064,45.064,87.814,83.499,117.474H406.37c38.436-29.661,67.875-70.411,83.499-117.474
	C473.268,311.136,448.796,298.991,421.526,298.991z"/>
<path style="fill:#FFC843;" d="M256,32.061c-121.803,0-220.542,98.739-220.542,220.54c0,84.68,47.732,158.197,117.748,195.154
	h205.591c70.015-36.957,117.745-110.475,117.745-195.154C476.541,130.801,377.803,32.061,256,32.061z"/>
<circle style="fill:#D49000;" cx="256.003" cy="252.6" r="178.975"/>
<path style="fill:#FFC843;" d="M258.759,120.244c8.844,0,15.86,7.014,15.86,15.858v4.269c16.469,2.44,31.106,7.321,44.222,14.637
	c5.796,3.359,10.98,9.153,10.98,18.303c0,11.587-9.15,20.43-20.741,20.43c-3.658,0-7.317-0.912-10.674-2.743
	c-8.538-4.574-17.075-8.235-25.312-10.371v46.358c46.356,12.502,66.181,31.415,66.181,65.567c0,34.161-26.227,56.117-64.655,60.388
	V369.1c0,8.845-7.016,15.858-15.86,15.858c-8.843,0-15.859-7.012-15.859-15.858v-16.468c-21.652-2.746-42.087-10.369-60.079-21.349
	c-6.403-3.962-10.369-10.064-10.369-18.299c0-11.894,9.149-20.737,21.043-20.737c3.964,0,8.233,1.526,11.894,3.966
	c12.808,8.234,25.009,14.027,39.037,17.076v-48.49c-43.917-11.894-65.57-28.669-65.57-64.961c0-33.544,25.619-56.116,64.044-60.077
	V136.1C242.9,127.258,249.916,120.244,258.759,120.244z M244.426,219.054v-41.172c-14.639,2.136-21.043,9.455-21.043,19.214
	C223.383,206.55,227.652,212.955,244.426,219.054z M273.093,272.425v42.39c14.333-2.13,21.653-8.843,21.653-19.823
	C294.745,284.929,289.562,278.218,273.093,272.425z"/>
<g>
</g>
<g>
</g>
<g>
</g>
<g>
</g>
<g>
</g>
<g>
</g>
<g>
</g>
<g>
</g>
<g>
</g>
<g>
</g>
<g>
</g>
<g>
</g>
<g>
</g>
<g>
</g>
<g>
</g>
</svg>
