<?xml version="1.0" encoding="iso-8859-1"?>
<!-- Generator: Adobe Illustrator 19.0.0, SVG Export Plug-In . SVG Version: 6.00 Build 0)  -->
<svg version="1.1" id="Layer_1" xmlns="http://www.w3.org/2000/svg" xmlns:xlink="http://www.w3.org/1999/xlink" x="0px" y="0px"
	 viewBox="0 0 512 512" style="enable-background:new 0 0 512 512;" xml:space="preserve">
<path style="fill:#E0E0D3;" d="M464.308,17.452C464.308,7.853,456.454,0,446.856,0H65.144c-9.598,0-17.452,7.853-17.452,17.452
	v477.097c0,9.598,7.853,17.452,17.452,17.452h381.712c9.598,0,17.452-7.853,17.452-17.452V17.452z"/>
<path style="fill:#333E48;" d="M415.391,82.621H238.548c-4.819,0-8.726-3.907-8.726-8.726c0-4.82,3.907-8.726,8.726-8.726h176.843
	c4.819,0,8.726,3.906,8.726,8.726C424.117,78.714,420.21,82.621,415.391,82.621z"/>
<path style="fill:#5C6670;" d="M363.036,122.178H238.548c-4.819,0-8.726-3.907-8.726-8.726c0-4.82,3.907-8.726,8.726-8.726h124.488
	c4.819,0,8.726,3.906,8.726,8.726C371.762,118.271,367.855,122.178,363.036,122.178z"/>
<circle style="fill:#0055B8;" cx="146.814" cy="93.669" r="59.333"/>
<path style="fill:#FFFFFF;" d="M135.589,123.048c-2.314,0-4.534-0.919-6.17-2.556l-18.856-18.858c-3.408-3.408-3.408-8.933,0-12.339
	c3.408-3.407,8.933-3.408,12.339,0.001l12.686,12.686l32.8-32.801c3.408-3.407,8.933-3.407,12.339,0
	c3.408,3.409,3.408,8.933,0,12.339l-38.969,38.972C140.123,122.129,137.903,123.048,135.589,123.048z"/>
<path style="fill:#333E48;" d="M415.391,244.947H238.548c-4.819,0-8.726-3.906-8.726-8.726s3.907-8.726,8.726-8.726h176.843
	c4.819,0,8.726,3.906,8.726,8.726C424.117,241.042,420.21,244.947,415.391,244.947z"/>
<path style="fill:#5C6670;" d="M363.036,284.504H238.548c-4.819,0-8.726-3.906-8.726-8.726c0-4.82,3.907-8.726,8.726-8.726h124.488
	c4.819,0,8.726,3.906,8.726,8.726C371.762,280.599,367.855,284.504,363.036,284.504z"/>
<circle style="fill:#D49000;" cx="146.814" cy="256.003" r="59.333"/>
<path style="fill:#333E48;" d="M415.391,407.274H238.548c-4.819,0-8.726-3.906-8.726-8.726c0-4.819,3.907-8.726,8.726-8.726h176.843
	c4.819,0,8.726,3.907,8.726,8.726C424.117,403.368,420.21,407.274,415.391,407.274z"/>
<path style="fill:#5C6670;" d="M363.036,446.831H238.548c-4.819,0-8.726-3.906-8.726-8.726c0-4.819,3.907-8.726,8.726-8.726h124.488
	c4.819,0,8.726,3.907,8.726,8.726C371.762,442.925,367.855,446.831,363.036,446.831z"/>
<circle style="fill:#D49000;" cx="146.814" cy="418.327" r="59.333"/>
<g>
</g>
<g>
</g>
<g>
</g>
<g>
</g>
<g>
</g>
<g>
</g>
<g>
</g>
<g>
</g>
<g>
</g>
<g>
</g>
<g>
</g>
<g>
</g>
<g>
</g>
<g>
</g>
<g>
</g>
</svg>
