<?xml version="1.0" encoding="iso-8859-1"?>
<!-- Generator: Adobe Illustrator 19.0.0, SVG Export Plug-In . SVG Version: 6.00 Build 0)  -->
<svg version="1.1" id="Layer_1" xmlns="http://www.w3.org/2000/svg" xmlns:xlink="http://www.w3.org/1999/xlink" x="0px" y="0px"
	 viewBox="0 0 512 512" style="enable-background:new 0 0 512 512;" xml:space="preserve">
<path style="fill:#E0E0D3;" d="M463.934,471.515V454.48c17.11,0,31.031-13.921,31.031-31.032c0-17.11-13.921-31.031-31.031-31.031
	v-17.035c26.504,0,48.066,21.562,48.066,48.066C512,449.952,490.438,471.515,463.934,471.515z"/>
<path style="fill:#333E48;" d="M352.74,492.535c0-97.406-78.963-176.37-176.369-176.37C78.963,316.165,0,395.13,0,492.535H352.74z"
	/>
<g>
	<polygon style="fill:#FFFFFF;" points="214.525,359.207 176.37,432.102 138.215,359.207 	"/>
	<polygon style="fill:#FFFFFF;" points="234.216,325.882 236.82,360.37 176.37,383.898 115.92,360.37 118.524,325.882 	"/>
</g>
<path style="fill:#FFBF9E;" d="M176.37,316.165c-20.264,0-39.722,3.429-57.845,9.718l57.845,57.845l57.845-57.845
	C216.093,319.593,196.634,316.165,176.37,316.165z"/>
<path style="opacity:0.1;enable-background:new    ;" d="M176.37,316.165c-25.961,0-50.61,5.611-72.805,15.685
	c22.044,10.556,46.733,16.472,72.805,16.472s50.761-5.916,72.804-16.472C226.98,321.777,202.331,316.165,176.37,316.165z"/>
<circle style="fill:#FFBF9E;" cx="176.369" cy="179.538" r="160.072"/>
<g>
	<circle style="fill:#333E48;" cx="200.377" cy="159.175" r="12.12"/>
	<circle style="fill:#333E48;" cx="301.122" cy="159.175" r="12.12"/>
</g>
<path style="fill:#C29178;" d="M276.962,181.362c10.998,0,19.912,8.916,19.912,19.912c0,10.999-8.915,19.913-19.912,19.913h-22.634
	c-10.998,0-19.912-8.915-19.912-19.913c0-10.997,8.915-19.912,19.912-19.912H276.962z"/>
<path style="fill:#333E48;" d="M176.37,19.465c-88.407,0-160.075,71.667-160.075,160.074c0,18.434,3.125,36.136,8.86,52.617
	c67.896-23.649,121.519-77.763,144.489-145.975c32.829,25.691,74.169,41.009,119.088,41.009c12.876,0,25.453-1.27,37.626-3.669
	C303.648,62.743,245.067,19.465,176.37,19.465z"/>
<path style="fill:#FFBF9E;" d="M85.311,168.027c-17.532,0-31.745,14.213-31.745,31.745s14.213,31.746,31.745,31.746V168.027z"/>
<path style="opacity:0.2;enable-background:new    ;" d="M455.416,462.997c0,4.704,3.814,8.518,8.518,8.518
	c4.247,0,8.365-0.56,12.291-1.599v-17.98c-3.772,1.634-7.926,2.544-12.291,2.544C459.23,454.48,455.416,458.292,455.416,462.997z
	 M463.934,375.38c-4.704,0-8.518,3.814-8.518,8.518c0,4.704,3.814,8.517,8.518,8.517c4.364,0,8.52,0.911,12.291,2.544v-17.98
	C472.299,375.94,468.181,375.38,463.934,375.38z"/>
<path style="fill:#E0E0D3;" d="M324.348,354.249v120.839c0,9.596,7.852,17.447,17.448,17.447h104.689
	c9.596,0,17.448-7.851,17.448-17.447V354.249H324.348z"/>
<ellipse style="fill:#C29178;" cx="394.145" cy="420.731" rx="27.853" ry="40.472"/>
<g>
	<path style="fill:#5C6670;" d="M367.451,337.89c-16.667,0-30.227-13.56-30.227-30.227s13.56-30.227,30.227-30.227
		c7.274,0,13.192-5.918,13.192-13.193c0-7.274-5.918-13.192-13.192-13.192c-4.704,0-8.518-3.814-8.518-8.518
		s3.814-8.518,8.518-8.518c16.667,0,30.227,13.56,30.227,30.227c0,16.668-13.56,30.228-30.227,30.228
		c-7.274,0-13.192,5.918-13.192,13.192c0,7.274,5.918,13.192,13.192,13.192c4.704,0,8.518,3.814,8.518,8.518
		C375.969,334.077,372.155,337.89,367.451,337.89z"/>
	<path style="fill:#5C6670;" d="M428.507,337.89c-16.667,0-30.227-13.56-30.227-30.227s13.56-30.227,30.227-30.227
		c7.274,0,13.192-5.918,13.192-13.193c0-7.274-5.918-13.192-13.192-13.192c-4.704,0-8.518-3.814-8.518-8.518
		s3.814-8.518,8.518-8.518c16.667,0,30.227,13.56,30.227,30.227c0,16.668-13.56,30.228-30.227,30.228
		c-7.274,0-13.192,5.918-13.192,13.192c0,7.274,5.918,13.192,13.192,13.192c4.704,0,8.517,3.814,8.517,8.518
		C437.024,334.077,433.212,337.89,428.507,337.89z"/>
</g>
<g>
</g>
<g>
</g>
<g>
</g>
<g>
</g>
<g>
</g>
<g>
</g>
<g>
</g>
<g>
</g>
<g>
</g>
<g>
</g>
<g>
</g>
<g>
</g>
<g>
</g>
<g>
</g>
<g>
</g>
</svg>
