<?xml version="1.0" encoding="iso-8859-1"?>
<!-- Generator: Adobe Illustrator 19.0.0, SVG Export Plug-In . SVG Version: 6.00 Build 0)  -->
<svg version="1.1" id="Layer_1" xmlns="http://www.w3.org/2000/svg" xmlns:xlink="http://www.w3.org/1999/xlink" x="0px" y="0px"
	 viewBox="0 0 512.005 512.005" style="enable-background:new 0 0 512.005 512.005;" xml:space="preserve">
<rect y="117.087" style="fill:#009D4E;" width="512.005" height="277.831"/>
<path style="fill:#00B550;" d="M404.78,144.378H107.22c-9.937,39.166-40.767,69.996-79.933,79.933v63.391
	c39.166,9.937,69.996,40.767,79.933,79.933H404.78c9.937-39.166,40.767-69.996,79.933-79.933v-63.391
	C445.548,214.373,414.717,183.543,404.78,144.378z"/>
<circle style="fill:#009D4E;" cx="256.002" cy="256.008" r="84.994"/>
<rect y="117.087" style="fill:#0055B8;" width="512.005" height="277.831"/>
<path style="fill:#0082CA;" d="M404.78,144.378H107.22c-9.937,39.166-40.767,69.996-79.933,79.933v63.391
	c39.166,9.937,69.996,40.767,79.933,79.933H404.78c9.937-39.166,40.767-69.996,79.933-79.933v-63.391
	C445.548,214.373,414.717,183.543,404.78,144.378z"/>
<circle style="fill:#0055B8;" cx="256.002" cy="256.008" r="84.994"/>
<path style="fill:#0082CA;" d="M257.329,195.291c4.057,0,7.274,3.218,7.274,7.274v1.959c7.554,1.119,14.271,3.358,20.286,6.715
	c2.658,1.539,5.036,4.196,5.036,8.394c0,5.315-4.198,9.373-9.514,9.373c-1.677,0-3.357-0.42-4.896-1.259
	c-3.915-2.099-7.832-3.777-11.609-4.757v21.265c21.263,5.736,30.356,14.41,30.356,30.078s-12.031,25.742-29.658,27.699v7.414
	c0,4.057-3.217,7.275-7.274,7.275c-4.057,0-7.275-3.218-7.275-7.275v-7.554c-9.932-1.259-19.306-4.756-27.56-9.793
	c-2.937-1.818-4.757-4.617-4.757-8.394c0-5.456,4.198-9.513,9.653-9.513c1.82,0,3.777,0.7,5.457,1.819
	c5.876,3.777,11.472,6.435,17.907,7.833v-22.244c-20.145-5.455-30.078-13.151-30.078-29.798c0-15.389,11.751-25.741,29.378-27.56
	v-1.678C250.055,198.508,253.272,195.291,257.329,195.291z M250.754,240.617V221.73c-6.715,0.98-9.653,4.337-9.653,8.813
	C241.101,234.881,243.06,237.818,250.754,240.617z M263.905,265.098v19.446c6.573-0.98,9.932-4.057,9.932-9.094
	C273.837,270.835,271.459,267.756,263.905,265.098z"/>
<g>
	<path style="fill:#0055B8;" d="M441.737,264.414h-67.269c-4.645,0-8.409-3.765-8.409-8.409c0-4.644,3.764-8.409,8.409-8.409h67.269
		c4.645,0,8.409,3.765,8.409,8.409C450.145,260.649,446.382,264.414,441.737,264.414z"/>
	<path style="fill:#0055B8;" d="M137.532,264.414H70.263c-4.644,0-8.409-3.765-8.409-8.409c0-4.644,3.765-8.409,8.409-8.409h67.269
		c4.644,0,8.409,3.765,8.409,8.409C145.941,260.649,142.176,264.414,137.532,264.414z"/>
</g>
<g>
</g>
<g>
</g>
<g>
</g>
<g>
</g>
<g>
</g>
<g>
</g>
<g>
</g>
<g>
</g>
<g>
</g>
<g>
</g>
<g>
</g>
<g>
</g>
<g>
</g>
<g>
</g>
<g>
</g>
</svg>
