<?xml version="1.0" encoding="iso-8859-1"?>
<!-- Generator: Adobe Illustrator 19.0.0, SVG Export Plug-In . SVG Version: 6.00 Build 0)  -->
<svg version="1.1" id="Layer_1" xmlns="http://www.w3.org/2000/svg" xmlns:xlink="http://www.w3.org/1999/xlink" x="0px" y="0px"
	 viewBox="0 0 511.999 511.999" style="enable-background:new 0 0 511.999 511.999;" xml:space="preserve">
<path style="fill:#C29178;" d="M338.33,133.6h0.007c-40.153-20.848,0.983-54.001,14.73-67.747h-0.001
	c7.03-6.978,11.386-16.647,11.386-27.336C364.451,17.244,347.208,0,325.935,0H186.063c-21.272,0-38.515,17.244-38.515,38.517
	c0,10.689,4.355,20.358,11.386,27.336h-0.001c13.747,13.746,54.883,46.898,14.73,67.747h0.007
	C90.9,166.391,32.361,247.153,32.361,341.593c0,123.512,75.69,170.406,223.638,170.406s223.638-46.894,223.638-170.406
	C479.638,247.153,421.099,166.391,338.33,133.6z"/>
<circle style="fill:#FFC843;" cx="255.994" cy="311.558" r="133.898"/>
<circle style="fill:#FFFFFF;" cx="255.994" cy="311.558" r="101.561"/>
<path style="fill:#D49000;" d="M256.385,244.129c4.581,0,8.214,3.633,8.214,8.212v2.211c8.526,1.264,16.107,3.791,22.899,7.582
	c3.002,1.739,5.687,4.737,5.687,9.475c0,6.001-4.739,10.581-10.74,10.581c-1.894,0-3.79-0.474-5.527-1.419
	c-4.421-2.372-8.842-4.265-13.106-5.372v24.005c24.002,6.475,34.269,16.265,34.269,33.955c0,17.686-13.581,29.058-33.48,31.267v8.37
	c0,4.58-3.633,8.212-8.214,8.212c-4.579,0-8.209-3.632-8.209-8.212v-8.528c-11.215-1.422-21.796-5.368-31.112-11.053
	c-3.316-2.053-5.37-5.213-5.37-9.478c0-6.158,4.738-10.738,10.897-10.738c2.055,0,4.264,0.788,6.16,2.05
	c6.631,4.267,12.948,7.267,20.213,8.845v-25.109c-22.742-6.158-33.953-14.845-33.953-33.638c0-17.37,13.265-29.057,33.165-31.112
	v-1.894C248.176,247.762,251.807,244.129,256.385,244.129z M248.966,295.297v-21.321c-7.58,1.106-10.897,4.896-10.897,9.95
	C238.068,288.822,240.279,292.137,248.966,295.297z M263.811,322.933v21.954c7.421-1.107,11.212-4.582,11.212-10.266
	C275.021,329.407,272.339,325.933,263.811,322.933z"/>
<path style="opacity:0.2;enable-background:new    ;" d="M360.438,143.799c-7.149-3.782-14.527-7.194-22.11-10.198h0.007
	c-13.736-7.133-17.956-15.704-17.016-24.447h-130.64c0.94,8.742-3.28,17.313-17.016,24.447h0.007
	c-7.582,3.005-14.959,6.416-22.11,10.198H360.438z"/>
<path style="fill:#333E48;" d="M329.914,129.965c11.494,0,20.813-9.316,20.813-20.812s-9.319-20.812-20.813-20.812h-147.83
	c-11.494,0-20.813,9.316-20.813,20.812s9.318,20.812,20.813,20.812H329.914z"/>
<g>
	<rect x="247.651" y="88.346" style="fill:#5C6670;" width="16.686" height="41.623"/>
	<rect x="195.524" y="88.346" style="fill:#5C6670;" width="16.686" height="41.623"/>
	<rect x="299.789" y="88.346" style="fill:#5C6670;" width="16.686" height="41.623"/>
</g>
<path style="opacity:0.2;enable-background:new    ;" d="M182.084,88.342c-11.494,0-20.813,9.316-20.813,20.812
	s9.318,20.812,20.813,20.812h73.911V88.342H182.084z"/>
<g>
</g>
<g>
</g>
<g>
</g>
<g>
</g>
<g>
</g>
<g>
</g>
<g>
</g>
<g>
</g>
<g>
</g>
<g>
</g>
<g>
</g>
<g>
</g>
<g>
</g>
<g>
</g>
<g>
</g>
</svg>
