<?xml version="1.0" encoding="iso-8859-1"?>
<!-- Generator: Adobe Illustrator 19.0.0, SVG Export Plug-In . SVG Version: 6.00 Build 0)  -->
<svg version="1.1" id="Layer_1" xmlns="http://www.w3.org/2000/svg" xmlns:xlink="http://www.w3.org/1999/xlink" x="0px" y="0px"
	 viewBox="0 0 512.001 512.001" style="enable-background:new 0 0 512.001 512.001;" xml:space="preserve">
<path style="fill:#0055B8;" d="M365.781,85.787c0-10.789-8.826-19.616-19.614-19.616H165.833c-10.787,0-19.614,8.827-19.614,19.616
	v81.766c0,10.789,8.826,19.614,19.614,19.614h180.336c10.788,0,19.614-8.825,19.614-19.614V85.787H365.781z"/>
<g>
	<path style="fill:#0082CA;" d="M327.866,383.735c0-9.412-7.699-17.111-17.111-17.111H201.246c-9.412,0-17.111,7.699-17.111,17.111
		v44.984c0,9.41,7.699,17.111,17.111,17.111h109.509c9.411,0,17.111-7.701,17.111-17.111V383.735z"/>
	<path style="fill:#0082CA;" d="M143.732,344.129c0-9.412-7.7-17.111-17.111-17.111H17.111C7.7,327.018,0,334.717,0,344.129v44.984
		c0,9.412,7.7,17.111,17.111,17.111h109.51c9.411,0,17.111-7.699,17.111-17.111v-44.984H143.732z"/>
	<path style="fill:#0082CA;" d="M368.268,389.115c0,9.41,7.7,17.109,17.111,17.109h109.51c9.411,0,17.111-7.699,17.111-17.109
		v-44.986c0-9.41-7.7-17.109-17.111-17.109H385.38c-9.411,0-17.111,7.699-17.111,17.109V389.115z"/>
</g>
<g>
	<rect x="247.742" y="187.173" style="fill:#333E48;" width="16.522" height="179.451"/>
	<path style="fill:#333E48;" d="M448.395,327.018h-16.522v-51.401c0-7.592-6.176-13.768-13.768-13.768H93.895
		c-7.592,0-13.768,6.176-13.768,13.768v51.401H63.604v-51.401c0-16.703,13.588-30.29,30.29-30.29h324.21
		c16.703,0,30.29,13.588,30.29,30.29L448.395,327.018L448.395,327.018z"/>
</g>
<g>
	<path style="fill:#FFFFFF;" d="M321.673,116.798H190.327c-4.562,0-8.261-3.698-8.261-8.261c0-4.563,3.699-8.261,8.261-8.261
		h131.346c4.562,0,8.261,3.698,8.261,8.261C329.934,113.1,326.236,116.798,321.673,116.798z"/>
	<path style="fill:#FFFFFF;" d="M321.673,155.584H190.327c-4.562,0-8.261-3.698-8.261-8.261c0-4.563,3.699-8.261,8.261-8.261
		h131.346c4.562,0,8.261,3.698,8.261,8.261C329.934,151.886,326.236,155.584,321.673,155.584z"/>
	<path style="fill:#FFFFFF;" d="M107.705,374.882H36.027c-4.562,0-8.261-3.698-8.261-8.261s3.699-8.261,8.261-8.261h71.677
		c4.562,0,8.261,3.698,8.261,8.261C115.966,371.183,112.267,374.882,107.705,374.882z"/>
	<path style="fill:#FFFFFF;" d="M291.84,414.485h-71.678c-4.562,0-8.261-3.698-8.261-8.261s3.699-8.261,8.261-8.261h71.678
		c4.562,0,8.261,3.698,8.261,8.261C300.101,410.787,296.402,414.485,291.84,414.485z"/>
	<path style="fill:#FFFFFF;" d="M475.972,374.882h-71.677c-4.562,0-8.261-3.698-8.261-8.261s3.699-8.261,8.261-8.261h71.677
		c4.562,0,8.261,3.698,8.261,8.261C484.233,371.183,480.535,374.882,475.972,374.882z"/>
</g>
<g>
</g>
<g>
</g>
<g>
</g>
<g>
</g>
<g>
</g>
<g>
</g>
<g>
</g>
<g>
</g>
<g>
</g>
<g>
</g>
<g>
</g>
<g>
</g>
<g>
</g>
<g>
</g>
<g>
</g>
</svg>
