<?xml version="1.0" encoding="iso-8859-1"?>
<!-- Generator: Adobe Illustrator 19.0.0, SVG Export Plug-In . SVG Version: 6.00 Build 0)  -->
<svg version="1.1" id="Layer_1" xmlns="http://www.w3.org/2000/svg" xmlns:xlink="http://www.w3.org/1999/xlink" x="0px" y="0px"
	 viewBox="0 0 512 512" style="enable-background:new 0 0 512 512;" xml:space="preserve">
<path style="fill:#E0E0D3;" d="M505.856,433.031c8.192,8.193,8.192,21.597,0,29.789l-43.036,43.037
	c-8.192,8.191-21.597,8.191-29.789,0l-308.83-308.831c-8.192-8.19-8.192-21.596,0-29.789l43.036-43.036
	c8.192-8.193,21.597-8.193,29.789,0L505.856,433.031z"/>
<rect x="175.908" y="314.745" transform="matrix(-0.7071 -0.7071 0.7071 -0.7071 323.4467 780.8497)" style="fill:#333E48;" width="295.069" height="17.384"/>
<rect x="174.367" y="207.604" transform="matrix(-0.7071 0.7071 -0.7071 -0.7071 545.2723 225.8605)" style="opacity:0.2;enable-background:new    ;" width="102.984" height="36.512"/>
<path style="fill:#5C6670;" d="M419.488,492.311l13.544,13.544c8.192,8.192,21.597,8.192,29.789,0l43.036-43.037
	c8.192-8.192,8.192-21.596,0-29.789l-13.544-13.544L419.488,492.311z"/>
<path style="fill:#333E48;" d="M299.281,168.099c-2.225,0-4.449-0.848-6.147-2.545L165.774,38.192
	c-10.252-10.252-26.932-10.252-37.182,0c-3.396,3.393-8.899,3.393-12.293,0c-3.395-3.396-3.395-8.899,0-12.293
	c17.029-17.025,44.739-17.029,61.768,0l127.361,127.362c3.395,3.396,3.395,8.898,0,12.293
	C303.73,167.25,301.505,168.099,299.281,168.099z"/>
<path style="opacity:0.2;enable-background:new    ;" d="M125.687,18.773c-3.361,1.9-6.527,4.267-9.388,7.126
	c-3.395,3.396-3.395,8.899,0,12.293c3.396,3.393,8.898,3.393,12.293,0c2.968-2.968,6.482-5.048,10.214-6.299L125.687,18.773z"/>
<path style="fill:#333E48;" d="M93.651,3.252C89.314-1.084,82.22-1.084,77.884,3.251L3.252,77.884
	c-4.337,4.336-4.335,11.429,0,15.765l162.791,162.79c4.332,4.335,11.426,4.335,15.763-0.001l74.632-74.632
	c4.335-4.336,4.335-11.43,0-15.764L93.651,3.252z"/>
<path style="fill:#5C6670;" d="M185.534,194.225c-2.224,0-4.449-0.848-6.147-2.545L68.01,80.303c-3.395-3.396-3.395-8.899,0-12.294
	c3.396-3.393,8.899-3.393,12.293,0l111.378,111.377c3.395,3.396,3.395,8.898,0,12.293
	C189.984,193.376,187.758,194.225,185.534,194.225z"/>
<g>
</g>
<g>
</g>
<g>
</g>
<g>
</g>
<g>
</g>
<g>
</g>
<g>
</g>
<g>
</g>
<g>
</g>
<g>
</g>
<g>
</g>
<g>
</g>
<g>
</g>
<g>
</g>
<g>
</g>
</svg>
