<?xml version="1.0" encoding="iso-8859-1"?>
<!-- Generator: Adobe Illustrator 19.0.0, SVG Export Plug-In . SVG Version: 6.00 Build 0)  -->
<svg version="1.1" id="Layer_1" xmlns="http://www.w3.org/2000/svg" xmlns:xlink="http://www.w3.org/1999/xlink" x="0px" y="0px"
	 viewBox="0 0 511.995 511.995" style="enable-background:new 0 0 511.995 511.995;" xml:space="preserve">
<circle style="fill:#0082CA;" cx="255.998" cy="255.998" r="255.998"/>
<path style="fill:#1E252B;" d="M204.018,82.656c-20.28-2.203-43.373-0.876-70.559,23.453
	c-27.189,24.326-46.202,94.661,6.518,202.643c51.704,105.912,107.125,133.326,156.438,132.588
	c40.072-0.603,66.554-22.428,69.584-28.509c3.029-6.083,6.993-11.386-2.449-21.987c-9.429-10.601-36.576-40.988-41.622-46.133
	c-5.046-5.14-10.934-15.806-24.001-9.619c-13.069,6.196-24.339,11.05-30.558,13.526c-6.216,2.467-30.424,12.772-67.849-61.813
	c-37.425-74.595-25.005-79.705-13.426-84.261c11.57-4.552,21.074-8.2,25.567-11.528c4.494-3.33,9.552-6.354,9.368-15.751
	c-0.185-9.405-0.864-77.61-0.915-81.32C220.059,90.239,215.861,83.942,204.018,82.656z"/>
<g>
	<path style="fill:#FFFFFF;" d="M369.685,337.242c-2.215,0-4.426-0.866-6.083-2.587c-3.235-3.358-3.134-8.703,0.225-11.94
		c17.405-16.762,29.379-38.154,34.628-61.864c5.371-24.255,3.248-49.254-6.139-72.294s-25.343-42.403-46.139-55.997
		c-20.328-13.289-43.829-20.254-68.014-20.041c-0.021,0-0.042,0-0.063,0c-4.634,0-8.409-3.739-8.443-8.382
		c-0.034-4.663,3.719-8.471,8.382-8.506c0.342-0.002,0.687-0.003,1.029-0.003c27.139,0,53.517,7.872,76.348,22.796
		c23.682,15.481,41.85,37.529,52.538,63.761c10.688,26.231,13.105,54.695,6.989,82.316c-5.97,26.967-19.596,51.302-39.403,70.379
		C373.902,336.457,371.791,337.242,369.685,337.242z"/>
	<path style="fill:#FFFFFF;" d="M338.126,304.415c-2.216,0-4.428-0.867-6.085-2.588c-3.233-3.36-3.131-8.705,0.229-11.94
		c22.765-21.908,29.782-54.937,17.881-84.147c-11.826-29.022-39.657-47.691-71.011-47.691c-0.196,0-0.39,0-0.585,0.002
		c-0.02,0-0.043,0-0.064,0c-4.634,0-8.408-3.739-8.443-8.381c-0.034-4.663,3.719-8.471,8.381-8.507
		c0.238-0.001,0.478-0.002,0.716-0.002c38.256,0,72.214,22.783,86.646,58.207c14.526,35.649,5.966,75.957-21.808,102.688
		C342.342,303.632,340.232,304.415,338.126,304.415z"/>
	<path style="fill:#FFFFFF;" d="M307.198,270.989c-2.156,0-4.313-0.822-5.961-2.465c-3.303-3.292-3.311-8.639-0.019-11.941
		c8.833-8.862,11.491-22.075,6.769-33.662c-4.801-11.779-16.074-19.351-28.77-19.351c-0.111,0-0.223,0.002-0.336,0.001
		c-4.631,0-8.405-3.734-8.443-8.374c-0.038-4.663,3.711-8.474,8.375-8.514c0.134-0.001,0.271-0.001,0.406-0.001
		c19.597,0,36.996,11.685,44.405,29.865c7.289,17.885,3.187,38.28-10.447,51.958C311.528,270.161,309.362,270.989,307.198,270.989z"
		/>
</g>
<g>
</g>
<g>
</g>
<g>
</g>
<g>
</g>
<g>
</g>
<g>
</g>
<g>
</g>
<g>
</g>
<g>
</g>
<g>
</g>
<g>
</g>
<g>
</g>
<g>
</g>
<g>
</g>
<g>
</g>
</svg>
