<?xml version="1.0" encoding="iso-8859-1"?>
<!-- Generator: Adobe Illustrator 19.0.0, SVG Export Plug-In . SVG Version: 6.00 Build 0)  -->
<svg version="1.1" id="Layer_1" xmlns="http://www.w3.org/2000/svg" xmlns:xlink="http://www.w3.org/1999/xlink" x="0px" y="0px"
	 viewBox="0 0 512 512" style="enable-background:new 0 0 512 512;" xml:space="preserve">
<path style="fill:#0055B8;" d="M256,256l181.019,181.019C483.346,390.692,512,326.692,512,256H256z"/>
<path style="fill:#FFC843;" d="M256,256h256c0-34.712-6.922-67.802-19.439-97.987L256,256z"/>
<path style="fill:#0082CA;" d="M0,256c0,141.385,114.615,256,256,256c70.692,0,134.692-28.654,181.019-74.981L256,256V0
	C114.615,0,0,114.615,0,256z"/>
<path style="fill:#D49000;" d="M437.019,74.981C390.692,28.654,326.692,0,256,0v256l236.561-97.987
	C479.586,126.725,460.599,98.56,437.019,74.981z"/>
<g>
</g>
<g>
</g>
<g>
</g>
<g>
</g>
<g>
</g>
<g>
</g>
<g>
</g>
<g>
</g>
<g>
</g>
<g>
</g>
<g>
</g>
<g>
</g>
<g>
</g>
<g>
</g>
<g>
</g>
</svg>
