<?xml version="1.0" encoding="iso-8859-1"?>
<!-- Generator: Adobe Illustrator 19.0.0, SVG Export Plug-In . SVG Version: 6.00 Build 0)  -->
<svg version="1.1" id="Layer_1" xmlns="http://www.w3.org/2000/svg" xmlns:xlink="http://www.w3.org/1999/xlink" x="0px" y="0px"
	 viewBox="0 0 512 512" style="enable-background:new 0 0 512 512;" xml:space="preserve">
<circle style="fill:#D49000;" cx="260.172" cy="103.691" r="37.591"/>
<rect x="317.933" y="360.063" style="fill:#FFBF9E;" width="67.299" height="73.443"/>
<rect x="317.933" y="421.111" style="fill:#333E48;" width="67.299" height="24.788"/>
<rect x="317.933" y="360.063" style="opacity:0.2;enable-background:new    ;" width="67.299" height="50.263"/>
<rect x="135.122" y="360.063" style="fill:#FFBF9E;" width="67.299" height="73.443"/>
<rect x="135.122" y="421.111" style="fill:#333E48;" width="67.299" height="24.788"/>
<rect x="135.122" y="360.063" style="opacity:0.2;enable-background:new    ;" width="67.299" height="50.263"/>
<path style="fill:#FFBF9E;" d="M512,215.224c0-6.328-5.177-11.505-11.505-11.505h-46.548c-6.328,0-11.504,5.177-11.504,11.505
	v60.985c0,6.328,5.177,11.505,11.504,11.505h46.548c6.33,0,11.505-5.178,11.505-11.505V215.224z"/>
<path style="opacity:0.1;enable-background:new    ;" d="M478.484,203.718h-24.537c-6.328,0-11.504,5.177-11.504,11.505v60.985
	c0,6.328,5.177,11.505,11.504,11.505h35.272c1.17-7.619,1.778-15.422,1.778-23.363C490.996,242.827,486.527,222.326,478.484,203.718
	z"/>
<path style="fill:#D49000;" d="M68.76,243.7H34.472C15.464,243.7,0,228.236,0,209.226c0-19.009,15.464-34.473,34.472-34.473
	c9.212,0,17.871,3.587,24.38,10.098c3.262,3.265,3.261,8.556-0.003,11.819c-3.264,3.261-8.555,3.262-11.817-0.003
	c-3.353-3.354-7.813-5.201-12.558-5.201c-9.792,0-17.759,7.967-17.759,17.76c0,9.794,7.966,17.761,17.759,17.761h34.288
	c4.616,0,8.357,3.742,8.357,8.357C77.117,239.958,73.376,243.7,68.76,243.7z"/>
<path style="opacity:0.2;enable-background:new    ;" d="M68.76,226.987H48.03c-1.378,5.461-2.458,11.039-3.228,16.713H68.76
	c4.616,0,8.357-3.742,8.357-8.357C77.117,230.728,73.376,226.987,68.76,226.987z"/>
<path style="fill:#FFBF9E;" d="M337.684,128.3c75.14,0,136.053,60.912,136.053,136.051c0,75.141-60.914,136.055-136.053,136.055
	H196.168c-75.141,0-136.054-60.914-136.054-136.055c0-75.139,60.912-136.051,136.054-136.051H337.684z"/>
<g>
	<path style="fill:#D49000;" d="M261.541,200.893c4.164,0,7.466,3.303,7.466,7.465v2.011c7.752,1.149,14.644,3.446,20.817,6.89
		c2.729,1.58,5.17,4.306,5.17,8.615c0,5.454-4.308,9.619-9.765,9.619c-1.721,0-3.445-0.432-5.024-1.293
		c-4.018-2.154-8.039-3.876-11.914-4.881v21.822c21.82,5.886,31.153,14.787,31.153,30.867c0,16.079-12.346,26.416-30.436,28.426
		v7.609c0,4.164-3.303,7.465-7.466,7.465c-4.163,0-7.463-3.301-7.463-7.465v-7.752c-10.194-1.293-19.814-4.88-28.284-10.05
		c-3.015-1.865-4.881-4.738-4.881-8.614c0-5.599,4.306-9.762,9.907-9.762c1.867,0,3.876,0.718,5.599,1.865
		c6.029,3.876,11.771,6.605,18.376,8.039v-22.827c-20.674-5.599-30.866-13.496-30.866-30.58c0-15.792,12.059-26.416,30.15-28.282
		v-1.723C254.077,204.195,257.377,200.893,261.541,200.893z M254.794,247.408v-19.381c-6.891,1.005-9.907,4.45-9.907,9.045
		C244.888,241.523,246.898,244.537,254.794,247.408z M268.29,272.532v19.957c6.747-1.005,10.192-4.163,10.192-9.331
		C278.483,278.419,276.043,275.26,268.29,272.532z"/>
	<path style="fill:#D49000;" d="M382.099,149.835c0,16.857-13.668,30.521-30.523,30.521c-16.853,0-30.52-13.664-30.52-30.521
		c0-25.482,20.658-46.14,46.141-46.14c8.229,0,14.901,6.67,14.901,14.899v31.241H382.099z"/>
</g>
<circle style="fill:#333E48;" cx="419.283" cy="209.23" r="11.016"/>
<g>
</g>
<g>
</g>
<g>
</g>
<g>
</g>
<g>
</g>
<g>
</g>
<g>
</g>
<g>
</g>
<g>
</g>
<g>
</g>
<g>
</g>
<g>
</g>
<g>
</g>
<g>
</g>
<g>
</g>
</svg>
