<?xml version="1.0" encoding="iso-8859-1"?>
<!-- Generator: Adobe Illustrator 19.0.0, SVG Export Plug-In . SVG Version: 6.00 Build 0)  -->
<svg version="1.1" id="Layer_1" xmlns="http://www.w3.org/2000/svg" xmlns:xlink="http://www.w3.org/1999/xlink" x="0px" y="0px"
	 viewBox="0 0 511.999 511.999" style="enable-background:new 0 0 511.999 511.999;" xml:space="preserve">
<path style="fill:#333E48;" d="M351.885,90.153h75.948c19.204,0,33.719,15.665,32.259,34.813l-24.108,316.053
	c-1.46,19.148-18.366,34.813-37.569,34.813h-46.53L351.885,90.153L351.885,90.153z"/>
<path style="opacity:0.2;enable-background:new    ;" d="M429.182,90.189c-0.447-0.02-0.897-0.034-1.35-0.034h-75.948v385.677h46.53
	c0.453,0,0.904-0.017,1.355-0.034c0.342-1.684,0.593-3.399,0.726-5.139l28.628-375.331
	C429.257,93.586,429.264,91.872,429.182,90.189z"/>
<path style="fill:#333E48;" d="M399.902,95.326c1.735-22.738-15.503-41.341-38.308-41.341H90.235
	c-22.804,0-40.042,18.604-38.308,41.341l28.628,375.331c1.734,22.736,21.812,41.341,44.617,41.341h201.486
	c22.804,0,42.881-18.605,44.616-41.341L399.902,95.326z"/>
<g>
	<polygon style="fill:#5C6670;" points="56.164,150.858 65.651,275.252 386.179,275.252 395.666,150.858 	"/>
	<path style="fill:#5C6670;" d="M248.299,331.132h-44.888c-4.6,0-8.327-3.728-8.327-8.327c0-4.6,3.727-8.327,8.327-8.327h44.888
		c4.6,0,8.327,3.727,8.327,8.327S252.898,331.132,248.299,331.132z"/>
	<path style="fill:#5C6670;" d="M170.593,331.132h-44.887c-4.6,0-8.327-3.728-8.327-8.327c0-4.6,3.727-8.327,8.327-8.327h44.887
		c4.6,0,8.327,3.727,8.327,8.327S175.193,331.132,170.593,331.132z"/>
	<path style="fill:#5C6670;" d="M325.338,331.132h-44.887c-4.6,0-8.327-3.728-8.327-8.327c0-4.6,3.727-8.327,8.327-8.327h44.887
		c4.6,0,8.327,3.727,8.327,8.327S329.938,331.132,325.338,331.132z"/>
	<path style="fill:#5C6670;" d="M248.299,372.849h-44.888c-4.6,0-8.327-3.727-8.327-8.327s3.727-8.327,8.327-8.327h44.888
		c4.6,0,8.327,3.727,8.327,8.327C256.626,369.12,252.898,372.849,248.299,372.849z"/>
	<path style="fill:#5C6670;" d="M170.593,372.849h-44.887c-4.6,0-8.327-3.727-8.327-8.327s3.727-8.327,8.327-8.327h44.887
		c4.6,0,8.327,3.727,8.327,8.327C178.92,369.12,175.193,372.849,170.593,372.849z"/>
	<path style="fill:#5C6670;" d="M325.338,372.849h-44.887c-4.6,0-8.327-3.727-8.327-8.327s3.727-8.327,8.327-8.327h44.887
		c4.6,0,8.327,3.727,8.327,8.327C333.665,369.12,329.938,372.849,325.338,372.849z"/>
	<path style="fill:#5C6670;" d="M248.299,414.566h-44.888c-4.6,0-8.327-3.727-8.327-8.327s3.727-8.327,8.327-8.327h44.888
		c4.6,0,8.327,3.727,8.327,8.327C256.626,410.838,252.898,414.566,248.299,414.566z"/>
	<path style="fill:#5C6670;" d="M170.593,414.566h-44.887c-4.6,0-8.327-3.727-8.327-8.327s3.727-8.327,8.327-8.327h44.887
		c4.6,0,8.327,3.727,8.327,8.327C178.92,410.838,175.193,414.566,170.593,414.566z"/>
	<path style="fill:#5C6670;" d="M325.338,414.566h-44.887c-4.6,0-8.327-3.727-8.327-8.327s3.727-8.327,8.327-8.327h44.887
		c4.6,0,8.327,3.727,8.327,8.327C333.665,410.838,329.938,414.566,325.338,414.566z"/>
	<path style="fill:#5C6670;" d="M248.299,456.282h-44.888c-4.6,0-8.327-3.727-8.327-8.327s3.727-8.327,8.327-8.327h44.888
		c4.6,0,8.327,3.727,8.327,8.327S252.898,456.282,248.299,456.282z"/>
</g>
<path style="fill:#FFC843;" d="M170.593,456.282h-44.887c-4.6,0-8.327-3.727-8.327-8.327s3.727-8.327,8.327-8.327h44.887
	c4.6,0,8.327,3.727,8.327,8.327S175.193,456.282,170.593,456.282z"/>
<path style="fill:#0082CA;" d="M325.338,456.282h-44.887c-4.6,0-8.327-3.727-8.327-8.327s3.727-8.327,8.327-8.327h44.887
	c4.6,0,8.327,3.727,8.327,8.327S329.938,456.282,325.338,456.282z"/>
<path style="fill:#FFFFFF;" d="M336.462,192.541c0-9.774-7.996-17.769-17.769-17.769H133.144c-9.773,0-17.769,7.995-17.769,17.769
	v36.412c0,9.773,7.996,17.769,17.769,17.769h185.549c9.773,0,17.769-7.996,17.769-17.769V192.541z"/>
<g>
	<path style="fill:#333E48;" d="M296.34,233.407c-4.6,0-8.327-3.727-8.327-8.327v-28.665c0-4.6,3.727-8.327,8.327-8.327
		s8.327,3.727,8.327,8.327v28.665C304.667,229.678,300.94,233.407,296.34,233.407z"/>
	<path style="fill:#333E48;" d="M261.551,233.407c-4.6,0-8.327-3.727-8.327-8.327v-28.665c0-4.6,3.727-8.327,8.327-8.327
		s8.327,3.727,8.327,8.327v28.665C269.878,229.678,266.151,233.407,261.551,233.407z"/>
</g>
<path style="fill:#E0E0D3;" d="M327.271,119.736V17.769C327.271,7.996,319.274,0,309.502,0H142.328
	c-9.773,0-17.769,7.996-17.769,17.769v101.967H327.271z"/>
<g>
	<path style="fill:#5C6670;" d="M241.317,89.001h-81.322c-4.6,0-8.327-3.727-8.327-8.327s3.727-8.327,8.327-8.327h81.322
		c4.6,0,8.327,3.727,8.327,8.327C249.645,85.273,245.917,89.001,241.317,89.001z"/>
	<path style="fill:#5C6670;" d="M276.857,47.538H159.996c-4.6,0-8.327-3.727-8.327-8.327s3.727-8.327,8.327-8.327h116.862
		c4.6,0,8.327,3.727,8.327,8.327S281.457,47.538,276.857,47.538z"/>
</g>
<g>
</g>
<g>
</g>
<g>
</g>
<g>
</g>
<g>
</g>
<g>
</g>
<g>
</g>
<g>
</g>
<g>
</g>
<g>
</g>
<g>
</g>
<g>
</g>
<g>
</g>
<g>
</g>
<g>
</g>
</svg>
