<?xml version="1.0" encoding="iso-8859-1"?>
<!-- Generator: Adobe Illustrator 19.0.0, SVG Export Plug-In . SVG Version: 6.00 Build 0)  -->
<svg version="1.1" id="Layer_1" xmlns="http://www.w3.org/2000/svg" xmlns:xlink="http://www.w3.org/1999/xlink" x="0px" y="0px"
	 viewBox="0 0 512 512" style="enable-background:new 0 0 512 512;" xml:space="preserve">
<g>
	<path style="fill:#0055B8;" d="M256,493.378c-4.633,0-8.389-3.756-8.389-8.389V368.157c0-4.633,3.756-8.389,8.389-8.389
		c4.634,0,8.389,3.756,8.389,8.389v116.832C264.389,489.622,260.634,493.378,256,493.378z"/>
	<path style="fill:#0055B8;" d="M193.365,492.311c-2.147,0-4.294-0.819-5.932-2.457c-3.276-3.276-3.276-8.588,0-11.863
		l62.635-62.635c3.276-3.275,8.587-3.276,11.865,0c3.276,3.276,3.276,8.588,0,11.863l-62.636,62.635
		C197.659,491.492,195.511,492.311,193.365,492.311z"/>
	<path style="fill:#0055B8;" d="M318.635,492.311c-2.147,0-4.294-0.819-5.933-2.457l-62.635-62.635
		c-3.276-3.276-3.276-8.588,0-11.863c3.276-3.275,8.587-3.276,11.865,0l62.635,62.635c3.276,3.276,3.276,8.588,0,11.863
		C322.929,491.492,320.782,492.311,318.635,492.311z"/>
</g>
<path style="fill:#E0E0D3;" d="M16.509,67.5v286.314c0,9.228,7.55,16.778,16.778,16.778h445.425c9.228,0,16.778-7.55,16.778-16.778
	V67.5H16.509z"/>
<rect x="16.509" y="72.192" style="opacity:0.2;enable-background:new    ;" width="478.98" height="26.403"/>
<path style="fill:#0055B8;" d="M512,35.4c0-9.228-7.55-16.778-16.778-16.778H16.778C7.55,18.622,0,26.172,0,35.4v20.014
	c0,9.228,7.55,16.778,16.778,16.778h478.443c9.228,0,16.778-7.55,16.778-16.778V35.4z"/>
<path style="fill:#D49000;" d="M132.101,155.667c-41.555,0-75.242,33.687-75.242,75.242c0,41.555,33.688,75.242,75.242,75.242
	s75.242-33.687,75.242-75.242h-75.242V155.667z"/>
<path style="fill:#0055B8;" d="M157.428,130.341v75.242h75.242C232.67,164.029,198.982,130.341,157.428,130.341z"/>
<g>
	<path style="fill:#333E48;" d="M443.382,167.702h-134.28c-4.634,0-8.389-3.756-8.389-8.389s3.755-8.389,8.389-8.389h134.28
		c4.634,0,8.389,3.756,8.389,8.389S448.015,167.702,443.382,167.702z"/>
	<path style="fill:#333E48;" d="M443.382,209.089h-134.28c-4.634,0-8.389-3.756-8.389-8.389s3.755-8.389,8.389-8.389h134.28
		c4.634,0,8.389,3.756,8.389,8.389S448.015,209.089,443.382,209.089z"/>
	<path style="fill:#333E48;" d="M443.382,250.475h-134.28c-4.634,0-8.389-3.756-8.389-8.389s3.755-8.389,8.389-8.389h134.28
		c4.634,0,8.389,3.756,8.389,8.389S448.015,250.475,443.382,250.475z"/>
	<path style="fill:#333E48;" d="M443.382,291.862h-134.28c-4.634,0-8.389-3.756-8.389-8.389s3.755-8.389,8.389-8.389h134.28
		c4.634,0,8.389,3.756,8.389,8.389S448.015,291.862,443.382,291.862z"/>
</g>
<g>
</g>
<g>
</g>
<g>
</g>
<g>
</g>
<g>
</g>
<g>
</g>
<g>
</g>
<g>
</g>
<g>
</g>
<g>
</g>
<g>
</g>
<g>
</g>
<g>
</g>
<g>
</g>
<g>
</g>
</svg>
