<?xml version="1.0" encoding="iso-8859-1"?>
<!-- Generator: Adobe Illustrator 19.0.0, SVG Export Plug-In . SVG Version: 6.00 Build 0)  -->
<svg version="1.1" id="Layer_1" xmlns="http://www.w3.org/2000/svg" xmlns:xlink="http://www.w3.org/1999/xlink" x="0px" y="0px"
	 viewBox="0 0 512 512" style="enable-background:new 0 0 512 512;" xml:space="preserve">
<rect x="111.991" y="47.182" style="fill:#E0E0D3;" width="288.021" height="308.316"/>
<rect x="111.991" y="190.924" style="opacity:0.2;enable-background:new    ;" width="288.021" height="164.574"/>
<g>
	<path style="fill:#5C6670;" d="M356.893,122.438H155.109c-4.635,0-8.391-3.756-8.391-8.391s3.756-8.391,8.391-8.391h201.784
		c4.634,0,8.391,3.756,8.391,8.391S361.528,122.438,356.893,122.438z"/>
	<path style="fill:#5C6670;" d="M356.893,169.851h-62.049c-4.635,0-8.391-3.756-8.391-8.391c0-4.635,3.756-8.391,8.391-8.391h62.049
		c4.634,0,8.391,3.756,8.391,8.391C365.284,166.094,361.528,169.851,356.893,169.851z"/>
	<path style="fill:#5C6670;" d="M264.637,169.851H155.109c-4.635,0-8.391-3.756-8.391-8.391c0-4.635,3.756-8.391,8.391-8.391
		h109.527c4.635,0,8.391,3.756,8.391,8.391C273.027,166.094,269.272,169.851,264.637,169.851z"/>
	<path style="fill:#5C6670;" d="M512,235.809c0-12.307-10.069-22.376-22.376-22.376H22.376C10.069,213.433,0,223.502,0,235.809
		v206.633c0,12.307,10.069,22.376,22.376,22.376h467.248c12.307,0,22.376-10.069,22.376-22.376V235.809z"/>
</g>
<path style="fill:#1E252B;" d="M423.265,435.345v-78.818c0-12.307-10.069-22.376-22.376-22.376H111.104
	c-12.307,0-22.376,10.069-22.376,22.376v78.818L423.265,435.345L423.265,435.345z"/>
<path style="opacity:0.1;enable-background:new    ;" d="M400.89,334.152H111.104c-12.307,0-22.376,10.069-22.376,22.376v29.181
	c0-12.307,10.069-22.376,22.376-22.376h289.787c12.307,0,22.376,10.069,22.376,22.376v-29.181
	C423.265,344.221,413.196,334.152,400.89,334.152z"/>
<rect x="76.671" y="420.914" style="fill:#333E48;" width="358.651" height="43.901"/>
<rect x="76.671" y="442.865" style="opacity:0.1;enable-background:new    ;" width="358.651" height="21.95"/>
<path style="fill:#FFFFFF;" d="M148.939,285.428c0,6.153-5.035,11.188-11.188,11.188H57.973c-6.153,0-11.188-5.035-11.188-11.188
	v-26.629c0-6.153,5.035-11.188,11.188-11.188h79.778c6.153,0,11.188,5.035,11.188,11.188V285.428z"/>
<circle style="fill:#FFC843;" cx="384.551" cy="272.115" r="19.131"/>
<circle style="fill:#0055B8;" cx="446.084" cy="272.115" r="19.131"/>
<g>
</g>
<g>
</g>
<g>
</g>
<g>
</g>
<g>
</g>
<g>
</g>
<g>
</g>
<g>
</g>
<g>
</g>
<g>
</g>
<g>
</g>
<g>
</g>
<g>
</g>
<g>
</g>
<g>
</g>
</svg>
