<?xml version="1.0" encoding="iso-8859-1"?>
<!-- Generator: Adobe Illustrator 19.0.0, SVG Export Plug-In . SVG Version: 6.00 Build 0)  -->
<svg version="1.1" id="Layer_1" xmlns="http://www.w3.org/2000/svg" xmlns:xlink="http://www.w3.org/1999/xlink" x="0px" y="0px"
	 viewBox="0 0 512 512" style="enable-background:new 0 0 512 512;" xml:space="preserve">
<path style="fill:#E0E0D3;" d="M76.322,0c-9.567,0-17.395,7.828-17.395,17.395l0.001,481.859c0,9.567,6.971,13.834,15.492,9.484
	l18.285-9.339c8.521-4.351,22.462-4.351,30.983,0l18.284,9.339c8.521,4.351,22.462,4.352,30.983,0l18.286-9.339
	c8.521-4.351,22.462-4.351,30.983,0l18.284,9.339c8.521,4.351,22.462,4.352,30.983,0l18.285-9.339
	c8.521-4.351,22.462-4.351,30.983,0l18.284,9.339c8.521,4.351,22.462,4.351,30.983,0l18.285-9.339
	c8.521-4.351,22.462-4.351,30.983,0l18.284,9.339c8.521,4.351,15.492,0.083,15.492-9.484V17.395C453.073,7.828,445.246,0,435.678,0
	H76.322z"/>
<g>
	<path style="fill:#5C6670;" d="M303.672,74.837H113.348c-4.803,0-8.697-3.894-8.697-8.697s3.894-8.697,8.697-8.697h190.324
		c4.803,0,8.697,3.894,8.697,8.697S308.475,74.837,303.672,74.837z"/>
	<path style="fill:#5C6670;" d="M235.078,123.359h-121.73c-4.803,0-8.697-3.894-8.697-8.697s3.894-8.697,8.697-8.697h121.73
		c4.803,0,8.697,3.894,8.697,8.697C243.775,119.466,239.881,123.359,235.078,123.359z"/>
	<path style="fill:#5C6670;" d="M303.672,171.88H113.348c-4.803,0-8.697-3.894-8.697-8.697c0-4.803,3.894-8.697,8.697-8.697h190.324
		c4.803,0,8.697,3.894,8.697,8.697C312.369,167.986,308.475,171.88,303.672,171.88z"/>
	<path style="fill:#5C6670;" d="M235.078,220.399h-121.73c-4.803,0-8.697-3.894-8.697-8.697c0-4.803,3.894-8.697,8.697-8.697h121.73
		c4.803,0,8.697,3.894,8.697,8.697C243.775,216.505,239.881,220.399,235.078,220.399z"/>
	<path style="fill:#5C6670;" d="M181.376,268.92h-68.028c-4.803,0-8.697-3.894-8.697-8.697s3.894-8.697,8.697-8.697h68.028
		c4.803,0,8.697,3.894,8.697,8.697S186.179,268.92,181.376,268.92z"/>
	<path style="fill:#5C6670;" d="M235.078,317.44h-121.73c-4.803,0-8.697-3.894-8.697-8.697c0-4.803,3.894-8.697,8.697-8.697h121.73
		c4.803,0,8.697,3.894,8.697,8.697C243.775,313.546,239.881,317.44,235.078,317.44z"/>
</g>
<g>
	<path style="fill:#333E48;" d="M399.368,74.837h-37.444c-4.803,0-8.697-3.894-8.697-8.697s3.894-8.697,8.697-8.697h37.444
		c4.803,0,8.697,3.894,8.697,8.697S404.172,74.837,399.368,74.837z"/>
	<path style="fill:#333E48;" d="M399.368,123.359h-37.444c-4.803,0-8.697-3.894-8.697-8.697s3.894-8.697,8.697-8.697h37.444
		c4.803,0,8.697,3.894,8.697,8.697C408.065,119.466,404.172,123.359,399.368,123.359z"/>
	<path style="fill:#333E48;" d="M399.368,171.88h-37.444c-4.803,0-8.697-3.894-8.697-8.697c0-4.803,3.894-8.697,8.697-8.697h37.444
		c4.803,0,8.697,3.894,8.697,8.697C408.065,167.986,404.172,171.88,399.368,171.88z"/>
	<path style="fill:#333E48;" d="M399.368,220.399h-37.444c-4.803,0-8.697-3.894-8.697-8.697c0-4.803,3.894-8.697,8.697-8.697h37.444
		c4.803,0,8.697,3.894,8.697,8.697C408.065,216.505,404.172,220.399,399.368,220.399z"/>
	<path style="fill:#333E48;" d="M399.368,268.92h-37.444c-4.803,0-8.697-3.894-8.697-8.697s3.894-8.697,8.697-8.697h37.444
		c4.803,0,8.697,3.894,8.697,8.697S404.172,268.92,399.368,268.92z"/>
	<path style="fill:#333E48;" d="M399.368,317.44h-37.444c-4.803,0-8.697-3.894-8.697-8.697c0-4.803,3.894-8.697,8.697-8.697h37.444
		c4.803,0,8.697,3.894,8.697,8.697C408.065,313.546,404.172,317.44,399.368,317.44z"/>
	<path style="fill:#333E48;" d="M381.61,360.916c2.942,0,5.276,2.334,5.276,5.275v1.422c5.478,0.812,10.349,2.435,14.711,4.869
		c1.928,1.117,3.653,3.045,3.653,6.088c0,3.856-3.044,6.798-6.899,6.798c-1.218,0-2.436-0.304-3.552-0.914
		c-2.841-1.523-5.682-2.738-8.421-3.45v15.422c15.422,4.16,22.017,10.452,22.017,21.816c0,11.363-8.725,18.668-21.509,20.088v5.378
		c0,2.941-2.334,5.275-5.276,5.275s-5.275-2.336-5.275-5.275v-5.48c-7.205-0.913-14.003-3.45-19.989-7.102
		c-2.13-1.32-3.45-3.348-3.45-6.088c0-3.957,3.044-6.899,7.001-6.899c1.318,0,2.739,0.508,3.958,1.32
		c4.262,2.739,8.319,4.666,12.987,5.681v-16.133c-14.611-3.957-21.814-9.537-21.814-21.612c0-11.159,8.523-18.668,21.307-19.986
		v-1.219C376.335,363.251,378.668,360.916,381.61,360.916z M376.842,393.791v-13.699c-4.871,0.71-7.001,3.146-7.001,6.393
		C369.841,389.63,371.26,391.76,376.842,393.791z M386.379,411.547v14.102c4.768-0.71,7.204-2.943,7.204-6.596
		C393.583,415.706,391.858,413.475,386.379,411.547z"/>
</g>
<rect x="103.601" y="378.611" style="fill:#5C6670;" width="185.09" height="54.43"/>
<g>
</g>
<g>
</g>
<g>
</g>
<g>
</g>
<g>
</g>
<g>
</g>
<g>
</g>
<g>
</g>
<g>
</g>
<g>
</g>
<g>
</g>
<g>
</g>
<g>
</g>
<g>
</g>
<g>
</g>
</svg>
