<?xml version="1.0" encoding="iso-8859-1"?>
<!-- Generator: Adobe Illustrator 19.0.0, SVG Export Plug-In . SVG Version: 6.00 Build 0)  -->
<svg version="1.1" id="Layer_1" xmlns="http://www.w3.org/2000/svg" xmlns:xlink="http://www.w3.org/1999/xlink" x="0px" y="0px"
	 viewBox="0 0 512 512" style="enable-background:new 0 0 512 512;" xml:space="preserve">
<rect x="37.217" y="422.969" style="fill:#333E48;" width="93.86" height="65.016"/>
<rect x="37.217" y="422.969" style="opacity:0.2;enable-background:new    ;" width="93.86" height="38.61"/>
<rect x="380.927" y="422.969" style="fill:#333E48;" width="93.86" height="65.016"/>
<rect x="380.927" y="422.969" style="opacity:0.2;enable-background:new    ;" width="93.86" height="38.61"/>
<path style="fill:#5C6670;" d="M512,53.644c0-16.296-13.333-29.629-29.629-29.629H29.629C13.334,24.015,0,37.349,0,53.644v360.041
	c0,16.296,13.334,29.629,29.629,29.629h452.742c16.296,0,29.629-13.333,29.629-29.629L512,53.644L512,53.644z"/>
<rect x="54.516" y="65.502" style="fill:#333E48;" width="416.003" height="336.334"/>
<g>
	<path style="fill:#E0E0D3;" d="M94.817,144.31c0,6.518-5.333,11.852-11.852,11.852H47.406c-6.518,0-11.852-5.333-11.852-11.852
		v-8.792c0-6.518,5.333-11.852,11.852-11.852h35.559c6.519,0,11.852,5.333,11.852,11.852V144.31z"/>
	<path style="fill:#E0E0D3;" d="M94.817,323.022c0-6.518-5.333-11.853-11.852-11.853H47.406c-6.518,0-11.852,5.333-11.852,11.853
		v8.792c0,6.518,5.333,11.852,11.852,11.852h35.559c6.519,0,11.852-5.333,11.852-11.852V323.022z"/>
</g>
<path style="fill:#5C6670;" d="M310.902,250.538l-41.037,41.036c-3.307,3.307-3.307,8.667,0,11.974
	c1.654,1.654,3.82,2.48,5.988,2.48c2.166,0,4.334-0.826,5.988-2.48l41.036-41.036c3.307-3.307,3.307-8.667,0-11.975
	C319.57,247.232,314.21,247.232,310.902,250.538z M315.887,233.666c0-4.676-3.79-8.467-8.467-8.467l-58.032-0.001
	c-4.676,0-8.467,3.791-8.467,8.467c0,4.676,3.791,8.467,8.467,8.467l58.032,0.001C312.095,242.133,315.887,238.342,315.887,233.666z
	 M362.611,219.272c2.166,0,4.334-0.826,5.988-2.48l41.036-41.035c3.307-3.307,3.307-8.667,0-11.974
	c-3.307-3.307-8.667-3.308-11.975,0l-41.036,41.035c-3.307,3.307-3.307,8.667,0,11.974
	C358.277,218.446,360.443,219.272,362.611,219.272z M281.841,163.784c-3.308-3.307-8.668-3.307-11.975,0
	c-3.307,3.307-3.307,8.668,0,11.974l41.036,41.035c1.654,1.653,3.821,2.48,5.988,2.48c2.166,0,4.334-0.826,5.988-2.48
	c3.307-3.307,3.307-8.668,0-11.974L281.841,163.784z M339.749,257.526c-4.676,0-8.467,3.791-8.467,8.467l-0.001,58.034
	c0,4.676,3.79,8.467,8.467,8.467c4.676,0,8.467-3.791,8.467-8.467l0.001-58.034C348.216,261.317,344.426,257.526,339.749,257.526z
	 M368.596,250.538c-3.307-3.307-8.668-3.307-11.974,0c-3.308,3.307-3.308,8.667-0.001,11.975l41.035,41.037
	c1.654,1.654,3.82,2.48,5.988,2.48c2.166,0,4.334-0.826,5.987-2.48c3.308-3.307,3.308-8.667,0.001-11.975L368.596,250.538z
	 M430.111,225.2h-58.033c-4.677,0-8.467,3.791-8.467,8.467c0,4.676,3.79,8.467,8.467,8.467h58.033c4.677,0,8.467-3.791,8.467-8.467
	C438.578,228.99,434.788,225.2,430.111,225.2z M339.749,134.837c-4.677,0-8.467,3.791-8.467,8.467v58.033
	c0,4.676,3.79,8.467,8.467,8.467c4.677,0,8.467-3.791,8.467-8.467v-58.033C348.216,138.626,344.426,134.837,339.749,134.837z"/>
<path style="opacity:0.2;enable-background:new    ;" d="M310.902,250.538l-27.067,27.066c3.504,4.451,7.523,8.472,11.975,11.975
	l27.067-27.067c3.307-3.307,3.307-8.667,0-11.975C319.57,247.232,314.21,247.232,310.902,250.538z M315.887,233.666
	c0-4.676-3.79-8.467-8.467-8.467l-38.28-0.001c-0.33,2.778-0.519,5.601-0.519,8.468c0,2.867,0.19,5.689,0.519,8.466l38.28,0.001
	C312.095,242.133,315.887,238.342,315.887,233.666z M362.611,219.272c2.166,0,4.334-0.826,5.988-2.48l27.065-27.064
	c-3.503-4.451-7.523-8.472-11.974-11.975l-27.066,27.065c-3.307,3.307-3.307,8.667,0,11.974
	C358.277,218.446,360.443,219.272,362.611,219.272z M295.809,177.752c-4.45,3.503-8.472,7.523-11.974,11.975l27.066,27.065
	c1.654,1.653,3.821,2.48,5.988,2.48c2.166,0,4.334-0.826,5.988-2.48c3.307-3.307,3.307-8.668,0-11.974L295.809,177.752z
	 M339.749,257.526c-4.676,0-8.467,3.791-8.467,8.467l-0.001,38.283c2.779,0.331,5.601,0.519,8.468,0.519
	c2.866,0,5.688-0.19,8.466-0.519l0.001-38.283C348.216,261.317,344.426,257.526,339.749,257.526z M410.359,225.2h-38.281
	c-4.677,0-8.467,3.791-8.467,8.467c0,4.676,3.79,8.467,8.467,8.467h38.281c0.33-2.778,0.519-5.601,0.519-8.468
	C410.879,230.799,410.689,227.977,410.359,225.2z M356.623,250.538c-3.308,3.307-3.308,8.667-0.001,11.975l27.066,27.067
	c4.451-3.503,8.472-7.523,11.975-11.975l-27.066-27.067C365.29,247.232,359.928,247.232,356.623,250.538z M331.282,163.054v38.281
	c0,4.676,3.79,8.467,8.467,8.467c4.677,0,8.467-3.791,8.467-8.467v-38.281c-2.778-0.33-5.6-0.519-8.467-0.519
	C336.881,162.535,334.06,162.725,331.282,163.054z"/>
<circle style="fill:#E0E0D3;" cx="339.754" cy="233.668" r="61.347"/>
<circle style="fill:#333E48;" cx="339.754" cy="233.668" r="29.255"/>
<g>
</g>
<g>
</g>
<g>
</g>
<g>
</g>
<g>
</g>
<g>
</g>
<g>
</g>
<g>
</g>
<g>
</g>
<g>
</g>
<g>
</g>
<g>
</g>
<g>
</g>
<g>
</g>
<g>
</g>
</svg>
