<?xml version="1.0" encoding="iso-8859-1"?>
<!-- Generator: Adobe Illustrator 19.0.0, SVG Export Plug-In . SVG Version: 6.00 Build 0)  -->
<svg version="1.1" id="Layer_1" xmlns="http://www.w3.org/2000/svg" xmlns:xlink="http://www.w3.org/1999/xlink" x="0px" y="0px"
	 viewBox="0 0 512 512" style="enable-background:new 0 0 512 512;" xml:space="preserve">
<path style="fill:#333E48;" d="M408.183,22.968C408.183,10.336,397.847,0,385.215,0H126.785c-12.633,0-22.968,10.336-22.968,22.968
	v466.065c0,12.632,10.335,22.967,22.968,22.967h258.429c12.632,0,22.968-10.335,22.968-22.967V22.968z"/>
<rect x="135.974" y="58.481" style="fill:#FFFFFF;" width="240.053" height="373.706"/>
<path style="fill:#0082CA;" d="M353.248,219.209c0-9.262-7.578-16.84-16.841-16.84H175.591c-9.262,0-16.841,7.578-16.841,16.84
	v57.515c0,9.262,7.579,16.84,16.841,16.84h160.815c9.263,0,16.841-7.578,16.841-16.84V219.209z"/>
<g>
	<path style="fill:#FFFFFF;" d="M321.41,241.535H190.588c-4.6,0-8.329-3.729-8.329-8.329s3.729-8.329,8.329-8.329H321.41
		c4.601,0,8.329,3.729,8.329,8.329S326.01,241.535,321.41,241.535z"/>
	<path style="fill:#FFFFFF;" d="M298.246,271.054h-84.498c-4.601,0-8.329-3.729-8.329-8.329c0-4.6,3.728-8.329,8.329-8.329h84.498
		c4.601,0,8.329,3.729,8.329,8.329C306.575,267.325,302.847,271.054,298.246,271.054z"/>
</g>
<g>
	<path style="fill:#1E252B;" d="M215.548,477.269h-52.904c-4.601,0-8.329-3.729-8.329-8.329c0-4.6,3.728-8.329,8.329-8.329h52.904
		c4.601,0,8.329,3.729,8.329,8.329C223.877,473.54,220.148,477.269,215.548,477.269z"/>
	<path style="fill:#1E252B;" d="M349.354,477.269h-52.903c-4.601,0-8.329-3.729-8.329-8.329c0-4.6,3.728-8.329,8.329-8.329h52.903
		c4.601,0,8.329,3.729,8.329,8.329C357.683,473.54,353.955,477.269,349.354,477.269z"/>
	<circle style="fill:#1E252B;" cx="256.001" cy="29.77" r="9.187"/>
</g>
<g>
</g>
<g>
</g>
<g>
</g>
<g>
</g>
<g>
</g>
<g>
</g>
<g>
</g>
<g>
</g>
<g>
</g>
<g>
</g>
<g>
</g>
<g>
</g>
<g>
</g>
<g>
</g>
<g>
</g>
</svg>
