<?xml version="1.0" encoding="iso-8859-1"?>
<!-- Generator: Adobe Illustrator 19.0.0, SVG Export Plug-In . SVG Version: 6.00 Build 0)  -->
<svg version="1.1" id="Layer_1" xmlns="http://www.w3.org/2000/svg" xmlns:xlink="http://www.w3.org/1999/xlink" x="0px" y="0px"
	 viewBox="0 0 512 512" style="enable-background:new 0 0 512 512;" xml:space="preserve">
<path style="fill:#FFC843;" d="M326.812,427.295c0-39.109-31.704-70.813-70.813-70.813s-70.813,31.703-70.813,70.813
	c0,39.109,31.704,84.705,70.813,84.705S326.812,466.403,326.812,427.295z"/>
<path style="fill:#D49000;" d="M296.776,427.295c0-22.52-18.256-40.776-40.776-40.776c-22.52,0-40.777,18.256-40.777,40.776
	c0,22.521,18.256,54.668,40.777,54.668S296.776,449.815,296.776,427.295z"/>
<path style="opacity:0.2;enable-background:new    ;" d="M256.001,356.482c-39.109,0-70.813,31.703-70.813,70.813
	c0,5.373,0.602,10.867,1.736,16.35h138.155c1.134-5.482,1.736-10.977,1.736-16.35C326.812,388.186,295.109,356.482,256.001,356.482z
	"/>
<path style="fill:#D49000;" d="M82.417,400.619c0-6.511,4.04-15.309,8.978-19.553l64.487-55.433
	c4.937-4.244,8.976-2.389,8.976,4.121v73.507c0,6.511-4.04,15.309-8.976,19.553l-64.487,55.433
	c-4.938,4.244-8.978,2.389-8.978-4.121V400.619z"/>
<path style="opacity:0.3;enable-background:new    ;" d="M155.881,325.633l-18.744,16.112v97.182l18.744-16.111
	c4.937-4.244,8.976-13.044,8.976-19.553v-73.509C164.857,323.243,160.819,321.389,155.881,325.633z"/>
<path style="fill:#D49000;" d="M429.583,400.619c0-6.511-4.04-15.309-8.978-19.553l-64.487-55.433
	c-4.937-4.244-8.976-2.389-8.976,4.121v73.507c0,6.511,4.04,15.309,8.976,19.553l64.487,55.433c4.938,4.244,8.978,2.389,8.978-4.121
	V400.619z"/>
<path style="opacity:0.3;enable-background:new    ;" d="M356.119,325.633l18.744,16.112v97.182l-18.744-16.111
	c-4.937-4.244-8.976-13.044-8.976-19.553v-73.509C347.142,323.243,351.182,321.389,356.119,325.633z"/>
<path style="fill:#0055B8;" d="M150.653,129.025V383.31h210.694V129.025C361.347,70.844,280.855,0,256.001,0
	S150.653,70.844,150.653,129.025z"/>
<rect x="150.651" y="365.177" style="fill:#0082CA;" width="210.697" height="62.12"/>
<circle style="fill:#FFFFFF;" cx="256.005" cy="197.682" r="55.006"/>
<path style="fill:#D49000;" d="M256.001,0c-17.041,0-60.236,33.307-85.711,72.999h171.422C316.237,33.307,273.041,0,256.001,0z"/>
<g>
	<rect x="247.823" y="365.177" style="fill:#FFFFFF;" width="16.364" height="62.12"/>
	<rect x="189.282" y="365.177" style="fill:#FFFFFF;" width="16.364" height="62.12"/>
	<rect x="306.353" y="365.177" style="fill:#FFFFFF;" width="16.364" height="62.12"/>
</g>
<g>
</g>
<g>
</g>
<g>
</g>
<g>
</g>
<g>
</g>
<g>
</g>
<g>
</g>
<g>
</g>
<g>
</g>
<g>
</g>
<g>
</g>
<g>
</g>
<g>
</g>
<g>
</g>
<g>
</g>
</svg>
