<?xml version="1.0" encoding="iso-8859-1"?>
<!-- Generator: Adobe Illustrator 19.0.0, SVG Export Plug-In . SVG Version: 6.00 Build 0)  -->
<svg version="1.1" id="Layer_1" xmlns="http://www.w3.org/2000/svg" xmlns:xlink="http://www.w3.org/1999/xlink" x="0px" y="0px"
	 viewBox="0 0 512.001 512.001" style="enable-background:new 0 0 512.001 512.001;" xml:space="preserve">
<path style="fill:#0082CA;" d="M27.944,146.581V61.886c0-26.325,21.417-47.741,47.741-47.741h360.627
	c26.325,0,47.741,21.417,47.741,47.741v84.695C484.053,146.581,27.944,146.581,27.944,146.581z"/>
<path style="fill:#0055B8;" d="M454.216,116.743V61.886c0-9.847-8.056-17.903-17.903-17.903H75.685
	c-9.847,0-17.903,8.056-17.903,17.903v54.857H454.216z"/>
<rect x="27.944" y="80.359" style="opacity:0.1;enable-background:new    ;" width="456.108" height="36.381"/>
<rect y="125.224" style="fill:#E0E0D3;" width="512.001" height="372.633"/>
<g>
	<rect y="433.096" style="fill:#5C6670;" width="512.001" height="64.749"/>
	<rect x="405.669" y="257.575" style="fill:#5C6670;" width="106.332" height="46.763"/>
</g>
<path style="opacity:0.1;enable-background:new    ;" d="M0,134.819v62.86c0,28.276,22.923,51.199,51.199,51.199
	c28.277,0,51.2-22.923,51.2-51.199c0,28.276,22.922,51.199,51.2,51.199s51.199-22.923,51.199-51.199
	c0,28.276,22.924,51.199,51.2,51.199s51.2-22.923,51.2-51.199c0,28.276,22.923,51.199,51.2,51.199c28.276,0,51.2-22.923,51.2-51.199
	c0,28.276,22.923,51.199,51.2,51.199c28.276,0,51.2-22.923,51.2-51.199v-62.86C511.999,134.819,0,134.819,0,134.819z"/>
<rect x="152.271" y="280.968" style="fill:#0055B8;" width="207.448" height="216.889"/>
<g>
	<rect x="426.914" y="433.096" style="fill:#333E48;" width="17.903" height="64.749"/>
	<rect x="67.184" y="433.096" style="fill:#333E48;" width="17.903" height="64.749"/>
</g>
<rect x="247.049" y="280.968" style="fill:#1E252B;" width="17.903" height="216.889"/>
<path style="fill:#0082CA;" d="M102.4,166.461v-62.86H17.903C8.056,103.601,0,111.657,0,121.504v44.957
	c0,28.276,22.923,51.199,51.199,51.199C79.477,217.661,102.4,194.738,102.4,166.461z"/>
<path style="fill:#FFFFFF;" d="M204.799,166.461c0,28.276-22.922,51.199-51.199,51.199s-51.2-22.923-51.2-51.199v-62.86h102.399
	V166.461z"/>
<path style="fill:#0082CA;" d="M307.2,166.461c0,28.276-22.923,51.199-51.2,51.199s-51.2-22.923-51.2-51.199v-62.86h102.4V166.461z"
	/>
<path style="fill:#FFFFFF;" d="M409.6,166.461c0,28.276-22.923,51.199-51.2,51.199c-28.277,0-51.2-22.923-51.2-51.199v-62.86h102.4
	L409.6,166.461L409.6,166.461z"/>
<path style="fill:#0082CA;" d="M409.6,166.461v-62.86h84.497c9.847,0,17.903,8.056,17.903,17.903v44.957
	c0,28.276-22.923,51.199-51.2,51.199C432.523,217.661,409.6,194.738,409.6,166.461z"/>
<rect y="332.254" style="fill:#5C6670;" width="85.326" height="46.763"/>
<g>
</g>
<g>
</g>
<g>
</g>
<g>
</g>
<g>
</g>
<g>
</g>
<g>
</g>
<g>
</g>
<g>
</g>
<g>
</g>
<g>
</g>
<g>
</g>
<g>
</g>
<g>
</g>
<g>
</g>
</svg>
