<?xml version="1.0" encoding="iso-8859-1"?>
<!-- Generator: Adobe Illustrator 19.0.0, SVG Export Plug-In . SVG Version: 6.00 Build 0)  -->
<svg version="1.1" id="Layer_1" xmlns="http://www.w3.org/2000/svg" xmlns:xlink="http://www.w3.org/1999/xlink" x="0px" y="0px"
	 viewBox="0 0 512 512" style="enable-background:new 0 0 512 512;" xml:space="preserve">
<circle style="fill:#0082CA;" cx="247.735" cy="264.262" r="247.735"/>
<path style="fill:#FFFFFF;" d="M247.738,441.689c-97.832,0-177.424-79.593-177.424-177.423c0-97.832,79.592-177.425,177.424-177.425
	s177.424,79.593,177.424,177.425C425.162,362.096,345.569,441.689,247.738,441.689z"/>
<path style="fill:#FFC843;" d="M247.738,371.374c-59.061,0-107.11-48.05-107.11-107.109c0-59.063,48.05-107.112,107.11-107.112
	c59.061,0,107.11,48.05,107.11,107.112C354.848,323.325,306.799,371.374,247.738,371.374z"/>
<path style="fill:#333E48;" d="M238.082,249.562c-6.726,6.726-6.726,17.63,0,24.36c6.727,6.727,17.634,6.724,24.359-0.002
	L449.612,86.75c6.725-6.723,6.727-17.63-0.002-24.358c-6.725-6.726-17.632-6.726-24.358,0L238.082,249.562z"/>
<path style="opacity:0.2;enable-background:new    ;" d="M238.082,273.922c6.727,6.727,17.634,6.724,24.359-0.002L449.612,86.75
	c6.725-6.723,6.727-17.63-0.002-24.358L238.082,273.922z"/>
<g>
	<polygon style="fill:#0055B8;" points="424.694,62.946 354.865,132.781 337.152,69.832 406.983,0.003 	"/>
	<polygon style="fill:#0055B8;" points="449.054,87.308 379.223,157.14 442.171,174.853 512,105.02 	"/>
</g>
<polygon style="opacity:0.2;enable-background:new    ;" points="351.038,119.183 354.865,132.781 424.694,62.946 420.869,49.353 
	"/>
<polygon style="opacity:0.2;enable-background:new    ;" points="449.054,87.308 379.223,157.14 392.817,160.965 462.65,91.135 "/>
<g>
</g>
<g>
</g>
<g>
</g>
<g>
</g>
<g>
</g>
<g>
</g>
<g>
</g>
<g>
</g>
<g>
</g>
<g>
</g>
<g>
</g>
<g>
</g>
<g>
</g>
<g>
</g>
<g>
</g>
</svg>
