<?xml version="1.0" encoding="iso-8859-1"?>
<!-- Generator: Adobe Illustrator 19.0.0, SVG Export Plug-In . SVG Version: 6.00 Build 0)  -->
<svg version="1.1" id="Layer_1" xmlns="http://www.w3.org/2000/svg" xmlns:xlink="http://www.w3.org/1999/xlink" x="0px" y="0px"
	 viewBox="0 0 512 512" style="enable-background:new 0 0 512 512;" xml:space="preserve">
<polygon style="fill:#5C6670;" points="121.989,0 164.224,51.864 347.776,51.864 390.012,0 "/>
<polygon style="fill:#0082CA;" points="296.266,128.886 215.74,128.886 168.118,428.478 256.003,512 343.888,428.478 "/>
<polygon style="fill:#0055B8;" points="299.378,22.359 319.822,71.458 296.26,128.886 215.74,128.886 192.178,71.458 
	212.621,22.359 "/>
<path style="fill:#E0E0D3;" d="M314.608,244.269L175.247,383.629l-4.435,27.901l147.014-147.012L314.608,244.269z M298.626,143.731
	L197.269,245.088l-4.435,27.901l109.011-109.01L298.626,143.731z M330.587,344.806L208.518,466.874l12.032,11.434l113.256-113.255
	L330.587,344.806z"/>
<polygon style="opacity:0.1;enable-background:new    ;" points="296.266,128.886 215.74,128.886 212.307,150.485 299.7,150.485 "/>
<g>
	<path style="fill:#E0E0D3;" d="M301.436,17.817c-6.276,1.685-11.646,2.087-9.147,8.087l35.164,63.754
		c2.499,5.999,7.866,5.285,12.247,0.018c0,0,52.632-56.029,58.333-70.503c4.843-12.295,0.337-21.122-11.411-18.797L301.436,17.817z"
		/>
	<path style="fill:#E0E0D3;" d="M210.564,17.817c6.276,1.685,11.646,2.087,9.147,8.087l-35.164,63.754
		c-2.499,5.999-7.866,5.285-12.247,0.018c0,0-52.632-56.029-58.333-70.503c-4.843-12.296-0.337-21.123,11.411-18.798L210.564,17.817
		z"/>
</g>
<g>
</g>
<g>
</g>
<g>
</g>
<g>
</g>
<g>
</g>
<g>
</g>
<g>
</g>
<g>
</g>
<g>
</g>
<g>
</g>
<g>
</g>
<g>
</g>
<g>
</g>
<g>
</g>
<g>
</g>
</svg>
