<?xml version="1.0" encoding="iso-8859-1"?>
<!-- Generator: Adobe Illustrator 19.0.0, SVG Export Plug-In . SVG Version: 6.00 Build 0)  -->
<svg version="1.1" id="Layer_1" xmlns="http://www.w3.org/2000/svg" xmlns:xlink="http://www.w3.org/1999/xlink" x="0px" y="0px"
	 viewBox="0 0 512 512" style="enable-background:new 0 0 512 512;" xml:space="preserve">
<circle style="fill:#0055B8;" cx="256" cy="255.998" r="255.998"/>
<path style="fill:#0082CA;" d="M256.002,324.849c-79.141,0-146.006,52.517-167.676,124.598C133.244,488.414,191.869,512,256.002,512
	s122.757-23.586,167.676-62.554C402.008,377.364,335.143,324.849,256.002,324.849z"/>
<g>
	<circle style="fill:#333E48;" cx="256" cy="402.9" r="11.259"/>
	<circle style="fill:#333E48;" cx="256" cy="454.881" r="11.259"/>
</g>
<g>
	<polygon style="fill:#FFFFFF;" points="198.588,335.19 193.246,377.972 256.002,348.578 	"/>
	<polygon style="fill:#FFFFFF;" points="313.417,335.19 318.759,377.972 256.002,348.578 	"/>
</g>
<path style="opacity:0.1;enable-background:new    ;" d="M256.002,324.849c-30.764,0-59.671,7.938-84.792,21.874
	c24.887,14.589,53.86,22.961,84.792,22.961s59.904-8.372,84.792-22.961C315.674,332.787,286.766,324.849,256.002,324.849z"/>
<circle style="fill:#FFBF9E;" cx="256" cy="201.743" r="149.086"/>
<circle style="fill:#C29178;" cx="256" cy="212.686" r="18.327"/>
<g>
	<circle style="fill:#333E48;" cx="318.767" cy="186.195" r="11.155"/>
	<circle style="fill:#333E48;" cx="193.245" cy="186.195" r="11.155"/>
	<path style="fill:#333E48;" d="M256.002,52.665c-76.481,0-139.5,57.596-148.076,131.777c60.716-9.688,114.119-41.29,151.83-86.464
		c33.964,33.795,80.781,54.685,132.48,54.685c1.521,0,3.036-0.021,4.55-0.057C376.474,94.417,321.117,52.665,256.002,52.665z"/>
</g>
<g>
</g>
<g>
</g>
<g>
</g>
<g>
</g>
<g>
</g>
<g>
</g>
<g>
</g>
<g>
</g>
<g>
</g>
<g>
</g>
<g>
</g>
<g>
</g>
<g>
</g>
<g>
</g>
<g>
</g>
</svg>
