<?xml version="1.0" encoding="iso-8859-1"?>
<!-- Generator: Adobe Illustrator 19.0.0, SVG Export Plug-In . SVG Version: 6.00 Build 0)  -->
<svg version="1.1" id="Layer_1" xmlns="http://www.w3.org/2000/svg" xmlns:xlink="http://www.w3.org/1999/xlink" x="0px" y="0px"
	 viewBox="0 0 512 512" style="enable-background:new 0 0 512 512;" xml:space="preserve">
<path style="fill:#FFC843;" d="M101.313,0C90.84,0,82.271,8.569,82.271,19.041v33.841c0,10.473,8.569,19.042,19.041,19.042H383.61
	c10.473,0,19.041-8.569,19.041-19.042V19.041C402.652,8.569,394.083,0,383.61,0H101.313z"/>
<path style="fill:#D49000;" d="M400.73,296.434h33.841c10.473,0,19.042-8.569,19.042-19.042v-42.784
	c0-10.473-8.569-19.041-19.042-19.041H400.73V296.434z"/>
<rect x="400.724" y="215.565" style="opacity:0.2;enable-background:new    ;" width="33.843" height="80.871"/>
<path style="fill:#D49000;" d="M101.313,29.615c-10.473,0-19.041,8.569-19.041,19.041v33.841c0,10.474,8.569,19.041,19.041,19.041
	H383.61c10.473,0,19.041-8.568,19.041-19.041V48.656c0-10.473-8.568-19.041-19.041-19.041H101.313z"/>
<path style="opacity:0.1;enable-background:new    ;" d="M82.27,57.123v25.375c0,10.474,8.569,19.041,19.041,19.041h282.298
	c10.473,0,19.041-8.568,19.041-19.041V57.123H82.27z"/>
<path style="fill:#FFC843;" d="M101.313,512c-10.473,0-19.041-8.569-19.041-19.041v-33.841c0-10.473,8.569-19.042,19.041-19.042
	H383.61c10.473,0,19.041,8.569,19.041,19.042v33.841c0,10.473-8.568,19.041-19.041,19.041H101.313z"/>
<path style="fill:#D49000;" d="M101.313,482.385c-10.473,0-19.041-8.568-19.041-19.041v-33.841c0-10.473,8.569-19.041,19.041-19.041
	H383.61c10.473,0,19.041,8.568,19.041,19.041v33.841c0,10.473-8.568,19.041-19.041,19.041H101.313z"/>
<path style="opacity:0.2;enable-background:new    ;" d="M82.27,454.877v-25.375c0-10.473,8.569-19.041,19.041-19.041h282.298
	c10.473,0,19.041,8.568,19.041,19.041v25.375H82.27z"/>
<path style="fill:#FFC843;" d="M426.537,97.314c0-13.964-11.425-25.389-25.389-25.389H83.776c-13.964,0-25.389,11.425-25.389,25.389
	v317.372c0,13.964,11.425,25.389,25.389,25.389h317.372c13.965,0,25.389-11.425,25.389-25.389V97.314z"/>
<rect x="97.538" y="111.073" style="fill:#FFFFFF;" width="289.854" height="289.854"/>
<g>
	<path style="fill:#5C6670;" d="M242.461,163.15L242.461,163.15c-4.668,0-8.452-3.784-8.452-8.452v-20.996
		c0-4.668,3.784-8.452,8.452-8.452l0,0c4.668,0,8.452,3.784,8.452,8.452v20.996C250.913,159.366,247.129,163.15,242.461,163.15z"/>
	<path style="fill:#5C6670;" d="M191.814,176.718c-2.921,0-5.762-1.517-7.327-4.228l-10.494-18.178
		c-2.334-4.042-0.948-9.212,3.095-11.546c4.041-2.333,9.212-0.948,11.546,3.095l10.493,18.178c2.334,4.042,0.948,9.212-3.095,11.546
		C194.701,176.352,193.248,176.718,191.814,176.718z"/>
	<path style="fill:#5C6670;" d="M154.718,213.799c-1.434,0-2.887-0.365-4.218-1.134l-18.177-10.493
		c-4.042-2.334-5.429-7.503-3.095-11.546c2.333-4.044,7.501-5.429,11.546-3.093l18.177,10.494c4.042,2.334,5.427,7.503,3.093,11.546
		C160.48,212.283,157.638,213.799,154.718,213.799z"/>
	<path style="fill:#5C6670;" d="M136.555,325.602c-2.921,0-5.762-1.517-7.327-4.228c-2.334-4.042-0.948-9.212,3.095-11.546
		l18.178-10.494c4.041-2.333,9.212-0.949,11.546,3.095c2.334,4.042,0.948,9.212-3.095,11.546l-18.178,10.494
		C139.442,325.237,137.989,325.602,136.555,325.602z"/>
	<path style="fill:#5C6670;" d="M181.305,370.367c-1.433,0-2.887-0.365-4.218-1.134c-4.042-2.334-5.427-7.503-3.093-11.546
		l10.494-18.177c2.334-4.044,7.502-5.429,11.546-3.094c4.042,2.334,5.427,7.503,3.094,11.546l-10.494,18.177
		C187.067,368.85,184.226,370.367,181.305,370.367z"/>
	<path style="fill:#5C6670;" d="M303.617,370.367c-2.921,0-5.762-1.517-7.328-4.228l-10.494-18.178
		c-2.334-4.042-0.948-9.212,3.095-11.546c4.04-2.333,9.212-0.948,11.546,3.095l10.493,18.178c2.334,4.042,0.948,9.212-3.095,11.546
		C306.505,370.002,305.052,370.367,303.617,370.367z"/>
	<path style="fill:#5C6670;" d="M348.367,325.602c-1.434,0-2.887-0.365-4.218-1.134l-18.177-10.493
		c-4.042-2.334-5.429-7.503-3.095-11.546c2.333-4.042,7.502-5.429,11.546-3.094L352.6,309.83c4.042,2.334,5.427,7.503,3.093,11.546
		C354.129,324.085,351.287,325.602,348.367,325.602z"/>
	<path style="fill:#5C6670;" d="M330.205,213.799c-2.921,0-5.762-1.517-7.327-4.228c-2.334-4.042-0.948-9.212,3.095-11.546
		l18.178-10.494c4.041-2.333,9.212-0.949,11.546,3.095c2.334,4.042,0.948,9.212-3.095,11.546l-18.178,10.493
		C333.092,213.434,331.638,213.799,330.205,213.799z"/>
	<path style="fill:#5C6670;" d="M293.107,176.718c-1.434,0-2.887-0.365-4.218-1.134c-4.042-2.334-5.427-7.503-3.094-11.546
		l10.494-18.177c2.333-4.044,7.501-5.43,11.546-3.095c4.042,2.334,5.427,7.503,3.093,11.546l-10.493,18.177
		C298.871,175.202,296.028,176.718,293.107,176.718z"/>
	<path style="fill:#5C6670;" d="M141.171,264.453L141.171,264.453l-21.008-0.001c-4.668,0-8.452-3.784-8.452-8.452
		s3.784-8.452,8.452-8.452l0,0l21.008,0.001c4.668,0,8.452,3.784,8.452,8.452C149.623,260.669,145.838,264.453,141.171,264.453z"/>
	<path style="fill:#5C6670;" d="M242.462,386.752L242.462,386.752c-4.668,0-8.452-3.784-8.452-8.452l0.001-20.996
		c0-4.668,3.784-8.452,8.452-8.452l0,0c4.668,0,8.452,3.784,8.452,8.452l-0.001,20.996
		C250.914,382.968,247.13,386.752,242.462,386.752z"/>
	<path style="fill:#5C6670;" d="M364.761,264.452L364.761,264.452h-21.008c-4.668,0-8.452-3.784-8.452-8.452
		c0-4.668,3.784-8.452,8.452-8.452l0,0h21.008c4.668,0,8.452,3.784,8.452,8.452C373.213,260.668,369.428,264.452,364.761,264.452z"
		/>
</g>
<g>
	<path style="fill:#333E48;" d="M299.909,264.452h-57.447c-4.668,0-8.452-3.784-8.452-8.452c0-4.668,3.784-8.452,8.452-8.452h57.447
		c4.668,0,8.452,3.784,8.452,8.452C308.361,260.668,304.576,264.452,299.909,264.452z"/>
	<path style="fill:#333E48;" d="M242.462,264.452c-2.163,0-4.326-0.825-5.976-2.476c-3.301-3.301-3.301-8.653,0-11.953
		l62.838-62.838c3.301-3.301,8.653-3.301,11.953,0c3.301,3.301,3.301,8.653,0,11.953l-62.838,62.838
		C246.788,263.627,244.624,264.452,242.462,264.452z"/>
</g>
<g>
</g>
<g>
</g>
<g>
</g>
<g>
</g>
<g>
</g>
<g>
</g>
<g>
</g>
<g>
</g>
<g>
</g>
<g>
</g>
<g>
</g>
<g>
</g>
<g>
</g>
<g>
</g>
<g>
</g>
</svg>
