<?xml version="1.0" encoding="iso-8859-1"?>
<!-- Generator: Adobe Illustrator 19.0.0, SVG Export Plug-In . SVG Version: 6.00 Build 0)  -->
<svg version="1.1" id="Layer_1" xmlns="http://www.w3.org/2000/svg" xmlns:xlink="http://www.w3.org/1999/xlink" x="0px" y="0px"
	 viewBox="0 0 512.009 512.009" style="enable-background:new 0 0 512.009 512.009;" xml:space="preserve">
<circle style="fill:#0055B8;" cx="256.004" cy="256.004" r="256.004"/>
<path style="fill:#0082CA;" d="M511.849,264.384C511.939,261.6,512,258.807,512,256c0-2.807-0.061-5.6-0.151-8.384H391.7
	c-1.226-46.475-12.54-86.584-28.359-120.681c1.233-0.425,2.47-0.84,3.699-1.28c28.136-10.079,54.632-23.893,79.007-41.164
	c-3.795-4.202-7.734-8.272-11.796-12.214c-22.551,15.701-46.975,28.318-72.865,37.591c-1.849,0.663-3.705,1.299-5.564,1.926
	C328.264,59.647,291.21,23.025,268.299,0.389c-0.032-0.031-0.061-0.061-0.093-0.092C264.16,0.107,260.093,0,256,0
	c-4.093,0-8.16,0.107-12.205,0.297c-0.032,0.03-0.061,0.06-0.094,0.092c-22.911,22.636-59.967,59.261-87.524,111.41
	c-2.084-0.702-4.162-1.425-6.234-2.172c-25.647-9.254-49.839-21.791-72.189-37.353c-4.064,3.943-8.003,8.014-11.8,12.218
	c24.164,17.121,50.416,30.85,78.297,40.909c1.464,0.529,2.937,1.03,4.408,1.537c-15.82,34.094-27.133,74.204-28.359,120.679H0.151
	C0.061,250.401,0,253.194,0,256.001c0,2.807,0.061,5.6,0.151,8.384H120.3c1.226,46.474,12.54,86.584,28.359,120.679
	c-1.47,0.508-2.943,1.008-4.408,1.537c-27.881,10.059-54.133,23.787-78.297,40.909c3.796,4.203,7.735,8.274,11.8,12.218
	c22.35-15.563,46.541-28.099,72.189-37.353c2.072-0.747,4.15-1.47,6.234-2.172c27.559,52.149,64.614,88.774,87.524,111.41
	c0.032,0.031,0.061,0.061,0.094,0.092c4.046,0.19,8.113,0.297,12.205,0.297s8.16-0.107,12.205-0.297
	c0.032-0.03,0.061-0.06,0.093-0.092c22.91-22.636,59.963-59.259,87.522-111.404c1.859,0.627,3.715,1.263,5.564,1.926
	c25.89,9.273,50.314,21.89,72.865,37.591c4.063-3.942,8.001-8.012,11.796-12.214c-24.375-17.271-50.87-31.086-79.007-41.164
	c-1.23-0.44-2.466-0.855-3.699-1.28c15.82-34.097,27.133-74.206,28.359-120.681h120.15V264.384z M247.619,491.877
	c-19.251-19.238-44.757-46.185-66.385-81.473c-3.077-5.019-5.984-10.086-8.742-15.19c24.404-6.754,49.561-10.503,75.127-11.176
	V491.877z M247.619,367.265c-28.217,0.704-55.971,4.95-82.84,12.687c-17.281-36.69-26.573-75.408-27.707-115.568h110.546v102.88
	H247.619z M247.619,247.616H137.073c1.134-40.159,10.425-78.877,27.707-115.568c26.869,7.737,54.623,11.983,82.84,12.687v102.88
	H247.619z M247.619,127.962c-25.566-0.674-50.722-4.421-75.127-11.176c2.759-5.104,5.666-10.171,8.742-15.19
	c21.628-35.288,47.135-62.235,66.385-81.473V127.962z M264.388,20.13c19.25,19.237,44.752,46.184,66.377,81.465
	c3.077,5.019,5.984,10.085,8.742,15.19c-24.403,6.754-49.559,10.502-75.119,11.176V20.13z M330.766,410.404
	c-21.625,35.282-47.127,62.228-66.377,81.465V384.038c25.56,0.675,50.717,4.421,75.119,11.176
	C336.75,400.319,333.841,405.385,330.766,410.404z M347.22,379.953c-26.867-7.736-54.62-11.984-82.831-12.688v-102.88h110.538
	C373.793,304.545,364.502,343.263,347.22,379.953z M264.388,247.616v-102.88c28.212-0.704,55.965-4.952,82.831-12.688
	c17.282,36.69,26.573,75.408,27.707,115.569H264.388z"/>
<g>
</g>
<g>
</g>
<g>
</g>
<g>
</g>
<g>
</g>
<g>
</g>
<g>
</g>
<g>
</g>
<g>
</g>
<g>
</g>
<g>
</g>
<g>
</g>
<g>
</g>
<g>
</g>
<g>
</g>
</svg>
